{
	"asset":{
		"generator":"Khronos glTF Blender I/O v4.0.44",
		"version":"2.0"
	},
	"extensionsUsed":[
		"KHR_materials_emissive_strength"
	],
	"scene":0,
	"scenes":[
		{
			"name":"Scene",
			"nodes":[
				0,
				1,
				2,
				3,
				4,
				5,
				6,
				7
			]
		}
	],
	"nodes":[
		{
			"mesh":0,
			"name":"tall box",
			"scale":[
				2.0451719760894775,
				2.0451719760894775,
				2.0451719760894775
			],
			"translation":[
				-1.8271939754486084,
				-2.1678683757781982,
				-7.304135799407959
			]
		},
		{
			"mesh":1,
			"name":"short box",
			"scale":[
				2.0451719760894775,
				2.0451719760894775,
				2.0451719760894775
			],
			"translation":[
				1.9052448272705078,
				-3.8521547317504883,
				-3.5601282119750977
			]
		},
		{
			"mesh":2,
			"name":"left wall",
			"scale":[
				2.0451719760894775,
				2.0451719760894775,
				2.0451719760894775
			],
			"translation":[
				-5.596445560455322,
				0.07071948051452637,
				-5.835439205169678
			]
		},
		{
			"mesh":3,
			"name":"right wall",
			"scale":[
				2.0451719760894775,
				2.0451719760894775,
				2.0451719760894775
			],
			"translation":[
				5.709264755249023,
				0.07071948051452637,
				-5.835439205169678
			]
		},
		{
			"mesh":4,
			"name":"back wall",
			"scale":[
				2.0451719760894775,
				2.0451719760894775,
				2.0451719760894775
			],
			"translation":[
				0.023686608299613,
				0.06616620719432831,
				-11.553738594055176
			]
		},
		{
			"mesh":5,
			"name":"ceiling",
			"scale":[
				2.0451719760894775,
				2.0451719760894775,
				2.0451719760894775
			],
			"translation":[
				0.023686608299613,
				5.682669162750244,
				-5.839908123016357
			]
		},
		{
			"mesh":6,
			"name":"floor",
			"scale":[
				2.0451719760894775,
				2.0451719760894775,
				2.0451719760894775
			],
			"translation":[
				0.05640942603349686,
				-5.54123067855835,
				-5.830970764160156
			]
		},
		{
			"mesh":7,
			"name":"area light",
			"scale":[
				2.0451719760894775,
				2.0451719760894775,
				2.0451719760894775
			],
			"translation":[
				0.023686608299613,
				5.650000095367432,
				-5.837862491607666
			]
		}
	],
	"materials":[
		{
			"doubleSided":true,
			"name":"Khaki",
			"pbrMetallicRoughness":{
				"baseColorFactor":[
					0.800000011920929,
					0.6601495146751404,
					0.43956080079078674,
					1
				],
				"metallicFactor":0
			}
		},
		{
			"doubleSided":true,
			"name":"HalveRed",
			"pbrMetallicRoughness":{
				"baseColorFactor":[
					0.699999988079071,
					0,
					0,
					1
				],
				"metallicFactor":0
			}
		},
		{
			"doubleSided":true,
			"name":"DarkGreen",
			"pbrMetallicRoughness":{
				"baseColorFactor":[
					6.198883397701138e-07,
					0.4000000059604645,
					0,
					1
				],
				"metallicFactor":0
			}
		},
		{
			"doubleSided":true,
			"emissiveFactor":[
				1,
				1,
				1
			],
			"extensions":{
				"KHR_materials_emissive_strength":{
					"emissiveStrength":50
				}
			},
			"name":"Material.001",
			"pbrMetallicRoughness":{
				"baseColorFactor":[
					0.800000011920929,
					0.800000011920929,
					0.800000011920929,
					1
				],
				"roughnessFactor":0
			}
		}
	],
	"meshes":[
		{
			"name":"tall box",
			"primitives":[
				{
					"attributes":{
						"POSITION":0,
						"NORMAL":1
					},
					"indices":2,
					"material":0
				}
			]
		},
		{
			"name":"short box",
			"primitives":[
				{
					"attributes":{
						"POSITION":3,
						"NORMAL":4
					},
					"indices":2,
					"material":0
				}
			]
		},
		{
			"name":"left wall",
			"primitives":[
				{
					"attributes":{
						"POSITION":5,
						"NORMAL":6
					},
					"indices":7,
					"material":1
				}
			]
		},
		{
			"name":"right wall",
			"primitives":[
				{
					"attributes":{
						"POSITION":8,
						"NORMAL":9
					},
					"indices":7,
					"material":2
				}
			]
		},
		{
			"name":"back wall",
			"primitives":[
				{
					"attributes":{
						"POSITION":10,
						"NORMAL":11
					},
					"indices":7,
					"material":0
				}
			]
		},
		{
			"name":"ceiling",
			"primitives":[
				{
					"attributes":{
						"POSITION":12,
						"NORMAL":13
					},
					"indices":7,
					"material":0
				}
			]
		},
		{
			"name":"floor",
			"primitives":[
				{
					"attributes":{
						"POSITION":14,
						"NORMAL":15
					},
					"indices":7,
					"material":0
				}
			]
		},
		{
			"name":"area light",
			"primitives":[
				{
					"attributes":{
						"POSITION":16,
						"NORMAL":17
					},
					"indices":7,
					"material":3
				}
			]
		}
	],
	"accessors":[
		{
			"bufferView":0,
			"componentType":5126,
			"count":20,
			"max":[
				1.034999966621399,
				1.6508315801620483,
				1.0463135242462158
			],
			"min":[
				-1.034999966621399,
				-1.6508315801620483,
				-1.0463135242462158
			],
			"type":"VEC3"
		},
		{
			"bufferView":1,
			"componentType":5126,
			"count":20,
			"type":"VEC3"
		},
		{
			"bufferView":2,
			"componentType":5123,
			"count":30,
			"type":"SCALAR"
		},
		{
			"bufferView":3,
			"componentType":5126,
			"count":20,
			"max":[
				1.0399999618530273,
				0.8258239030838013,
				1.0356565713882446
			],
			"min":[
				-1.0399999618530273,
				-0.8258239030838013,
				-1.0356565713882446
			],
			"type":"VEC3"
		},
		{
			"bufferView":4,
			"componentType":5126,
			"count":20,
			"type":"VEC3"
		},
		{
			"bufferView":5,
			"componentType":5126,
			"count":4,
			"max":[
				0.03200012072920799,
				2.746225595474243,
				2.7981841564178467
			],
			"min":[
				-0.03200012072920799,
				-2.746225595474243,
				-2.7981841564178467
			],
			"type":"VEC3"
		},
		{
			"bufferView":6,
			"componentType":5126,
			"count":4,
			"type":"VEC3"
		},
		{
			"bufferView":7,
			"componentType":5123,
			"count":6,
			"type":"SCALAR"
		},
		{
			"bufferView":8,
			"componentType":5126,
			"count":4,
			"max":[
				0,
				2.746225595474243,
				2.7981841564178467
			],
			"min":[
				0,
				-2.746225595474243,
				-2.7981841564178467
			],
			"type":"VEC3"
		},
		{
			"bufferView":9,
			"componentType":5126,
			"count":4,
			"type":"VEC3"
		},
		{
			"bufferView":10,
			"componentType":5126,
			"count":4,
			"max":[
				2.7799999713897705,
				2.7439990043640137,
				0.002184976590797305
			],
			"min":[
				-2.7799999713897705,
				-2.7439990043640137,
				-0.002184976590797305
			],
			"type":"VEC3"
		},
		{
			"bufferView":11,
			"componentType":5126,
			"count":4,
			"type":"VEC3"
		},
		{
			"bufferView":12,
			"componentType":5126,
			"count":4,
			"max":[
				2.7799999713897705,
				0.0022263829596340656,
				2.79599928855896
			],
			"min":[
				-2.7799999713897705,
				-0.0022263829596340656,
				-2.79599928855896
			],
			"type":"VEC3"
		},
		{
			"bufferView":13,
			"componentType":5126,
			"count":4,
			"type":"VEC3"
		},
		{
			"bufferView":14,
			"componentType":5126,
			"count":4,
			"max":[
				2.7639999389648438,
				0.0022263829596340656,
				2.79599928855896
			],
			"min":[
				-2.7639999389648438,
				-0.0022263829596340656,
				-2.79599928855896
			],
			"type":"VEC3"
		},
		{
			"bufferView":15,
			"componentType":5126,
			"count":4,
			"type":"VEC3"
		},
		{
			"bufferView":16,
			"componentType":5126,
			"count":4,
			"max":[
				0.6499999761581421,
				0.000418043986428529,
				0.5249998569488525
			],
			"min":[
				-0.6499999761581421,
				-0.000418043986428529,
				-0.5249998569488525
			],
			"type":"VEC3"
		},
		{
			"bufferView":17,
			"componentType":5126,
			"count":4,
			"type":"VEC3"
		}
	],
	"bufferViews":[
		{
			"buffer":0,
			"byteLength":240,
			"byteOffset":0,
			"target":34962
		},
		{
			"buffer":0,
			"byteLength":240,
			"byteOffset":240,
			"target":34962
		},
		{
			"buffer":0,
			"byteLength":60,
			"byteOffset":480,
			"target":34963
		},
		{
			"buffer":0,
			"byteLength":240,
			"byteOffset":540,
			"target":34962
		},
		{
			"buffer":0,
			"byteLength":240,
			"byteOffset":780,
			"target":34962
		},
		{
			"buffer":0,
			"byteLength":48,
			"byteOffset":1020,
			"target":34962
		},
		{
			"buffer":0,
			"byteLength":48,
			"byteOffset":1068,
			"target":34962
		},
		{
			"buffer":0,
			"byteLength":12,
			"byteOffset":1116,
			"target":34963
		},
		{
			"buffer":0,
			"byteLength":48,
			"byteOffset":1128,
			"target":34962
		},
		{
			"buffer":0,
			"byteLength":48,
			"byteOffset":1176,
			"target":34962
		},
		{
			"buffer":0,
			"byteLength":48,
			"byteOffset":1224,
			"target":34962
		},
		{
			"buffer":0,
			"byteLength":48,
			"byteOffset":1272,
			"target":34962
		},
		{
			"buffer":0,
			"byteLength":48,
			"byteOffset":1320,
			"target":34962
		},
		{
			"buffer":0,
			"byteLength":48,
			"byteOffset":1368,
			"target":34962
		},
		{
			"buffer":0,
			"byteLength":48,
			"byteOffset":1416,
			"target":34962
		},
		{
			"buffer":0,
			"byteLength":48,
			"byteOffset":1464,
			"target":34962
		},
		{
			"buffer":0,
			"byteLength":48,
			"byteOffset":1512,
			"target":34962
		},
		{
			"buffer":0,
			"byteLength":48,
			"byteOffset":1560,
			"target":34962
		}
	],
	"buffers":[
		{
			"byteLength":1608,
			"uri":"cornell-box2.bin"
		}
	]
}
