{
	"asset":{
		"generator":"Khronos glTF Blender I/O v4.0.44",
		"version":"2.0"
	},
	"scene":0,
	"scenes":[
		{
			"name":"Scene",
			"nodes":[
				0,
				1,
				2
			]
		}
	],
	"nodes":[
		{
			"mesh":0,
			"name":"Mesh000",
			"rotation":[
				0,
				0.7071068286895752,
				-0.7071067690849304,
				3.090862321641907e-08
			],
			"scale":[
				0.4829060137271881,
				0.4829060137271881,
				0.4829060137271881
			],
			"translation":[
				-0.11050699651241302,
				0.4943009912967682,
				-0.12619400024414062
			]
		},
		{
			"mesh":1,
			"name":"Mesh001",
			"rotation":[
				0,
				0.7071068286895752,
				-0.7071067690849304,
				3.090862321641907e-08
			],
			"scale":[
				0.4829060137271881,
				0.4829060137271881,
				0.4829060137271881
			],
			"translation":[
				-0.05717200040817261,
				0.2136559933423996,
				-0.0682080015540123
			]
		},
		{
			"mesh":2,
			"name":"Mesh002",
			"rotation":[
				0,
				0.7071068286895752,
				-0.7071067690849304,
				3.090862321641907e-08
			],
			"scale":[
				0.4829060137271881,
				0.4829060137271881,
				0.4829060137271881
			],
			"translation":[
				-0.1563819944858551,
				0.7772290110588074,
				-0.16169799864292145
			]
		}
	],
	"materials":[
		{
			"doubleSided":true,
			"name":"Stand",
			"pbrMetallicRoughness":{
				"baseColorFactor":[
					0.15000000596046448,
					0.15000000596046448,
					0.15000000596046448,
					1
				],
				"metallicFactor":0
			}
		},
		{
			"doubleSided":true,
			"name":"Material",
			"pbrMetallicRoughness":{
				"metallicFactor":0,
				"roughnessFactor":0.5
			}
		}
	],
	"meshes":[
		{
			"name":"Mesh000",
			"primitives":[
				{
					"attributes":{
						"POSITION":0,
						"NORMAL":1
					},
					"indices":2,
					"material":0
				}
			]
		},
		{
			"name":"Mesh001",
			"primitives":[
				{
					"attributes":{
						"POSITION":3,
						"NORMAL":4
					},
					"indices":5,
					"material":1
				}
			]
		},
		{
			"name":"Mesh002",
			"primitives":[
				{
					"attributes":{
						"POSITION":6,
						"NORMAL":7
					},
					"indices":8,
					"material":1
				}
			]
		}
	],
	"accessors":[
		{
			"bufferView":0,
			"componentType":5126,
			"count":26624,
			"max":[
				1.5703349113464355,
				1.570335865020752,
				0.9864987730979919
			],
			"min":[
				-1.570337176322937,
				-1.570336103439331,
				-1.522260308265686
			],
			"type":"VEC3"
		},
		{
			"bufferView":1,
			"componentType":5126,
			"count":26624,
			"type":"VEC3"
		},
		{
			"bufferView":2,
			"componentType":5123,
			"count":39936,
			"type":"SCALAR"
		},
		{
			"bufferView":3,
			"componentType":5126,
			"count":35072,
			"max":[
				1.7640033960342407,
				1.7628817558288574,
				0.3088991045951843
			],
			"min":[
				-1.499267578125,
				-1.5003892183303833,
				-0.3963198959827423
			],
			"type":"VEC3"
		},
		{
			"bufferView":4,
			"componentType":5126,
			"count":35072,
			"type":"VEC3"
		},
		{
			"bufferView":5,
			"componentType":5123,
			"count":52608,
			"type":"SCALAR"
		},
		{
			"bufferView":6,
			"componentType":5126,
			"count":99840,
			"max":[
				1.1391098499298096,
				1.135077953338623,
				1.2183692455291748
			],
			"min":[
				-1.2757631540298462,
				-1.2797950506210327,
				-1.1578127145767212
			],
			"type":"VEC3"
		},
		{
			"bufferView":7,
			"componentType":5126,
			"count":99840,
			"type":"VEC3"
		},
		{
			"bufferView":8,
			"componentType":5125,
			"count":149760,
			"type":"SCALAR"
		}
	],
	"bufferViews":[
		{
			"buffer":0,
			"byteLength":319488,
			"byteOffset":0,
			"target":34962
		},
		{
			"buffer":0,
			"byteLength":319488,
			"byteOffset":319488,
			"target":34962
		},
		{
			"buffer":0,
			"byteLength":79872,
			"byteOffset":638976,
			"target":34963
		},
		{
			"buffer":0,
			"byteLength":420864,
			"byteOffset":718848,
			"target":34962
		},
		{
			"buffer":0,
			"byteLength":420864,
			"byteOffset":1139712,
			"target":34962
		},
		{
			"buffer":0,
			"byteLength":105216,
			"byteOffset":1560576,
			"target":34963
		},
		{
			"buffer":0,
			"byteLength":1198080,
			"byteOffset":1665792,
			"target":34962
		},
		{
			"buffer":0,
			"byteLength":1198080,
			"byteOffset":2863872,
			"target":34962
		},
		{
			"buffer":0,
			"byteLength":599040,
			"byteOffset":4061952,
			"target":34963
		}
	],
	"buffers":[
		{
			"byteLength":4660992,
			"uri":"MaterialBall.bin"
		}
	]
}
