{
	"asset":{
		"generator":"Khronos glTF Blender I/O v4.0.44",
		"version":"2.0"
	},
	"scene":0,
	"scenes":[
		{
			"name":"Scene",
			"nodes":[
				0,
				3
			]
		}
	],
	"nodes":[
		{
			"mesh":0,
			"name":"background",
			"rotation":[
				0.70710688829422,
				0,
				0,
				0.7071066498756409
			],
			"scale":[
				5,
				4.999999523162842,
				4.999999523162842
			]
		},
		{
			"mesh":1,
			"name":"Mesh001",
			"translation":[
				-0.11044610291719437,
				-0.12007762491703033,
				0.5811585783958435
			]
		},
		{
			"mesh":2,
			"name":"Mesh002",
			"translation":[
				0.09499778598546982,
				0.07352156937122345,
				-0.5858862400054932
			]
		},
		{
			"children":[
				1,
				2
			],
			"mesh":3,
			"name":"Mesh000",
			"rotation":[
				0.6532815098762512,
				0.27059808373451233,
				-0.27059805393218994,
				0.6532815098762512
			],
			"scale":[
				0.4829059839248657,
				0.4829059839248657,
				0.4829060137271881
			],
			"translation":[
				-0.11050699651241302,
				0.4943009912967682,
				-0.12619400024414062
			]
		}
	],
	"materials":[
		{
			"doubleSided":true,
			"name":"Background",
			"pbrMetallicRoughness":{
				"baseColorTexture":{
					"index":0
				},
				"metallicFactor":0,
				"roughnessFactor":0.5
			}
		},
		{
			"doubleSided":true,
			"name":"Material",
			"pbrMetallicRoughness":{
				"baseColorFactor":[
					0.800000011920929,
					0.800000011920929,
					0.800000011920929,
					1
				],
				"roughnessFactor":0.5
			}
		},
		{
			"doubleSided":true,
			"name":"Stand",
			"pbrMetallicRoughness":{
				"baseColorFactor":[
					0.04862862452864647,
					0.04862862452864647,
					0.04862862452864647,
					1
				],
				"metallicFactor":0
			}
		}
	],
	"meshes":[
		{
			"name":"background",
			"primitives":[
				{
					"attributes":{
						"POSITION":0,
						"NORMAL":1,
						"TEXCOORD_0":2
					},
					"indices":3,
					"material":0
				}
			]
		},
		{
			"name":"Mesh001.001",
			"primitives":[
				{
					"attributes":{
						"POSITION":4,
						"NORMAL":5
					},
					"indices":6,
					"material":1
				}
			]
		},
		{
			"name":"Mesh002.001",
			"primitives":[
				{
					"attributes":{
						"POSITION":7,
						"NORMAL":8,
						"TEXCOORD_0":9
					},
					"indices":10,
					"material":1
				}
			]
		},
		{
			"name":"Mesh000.001",
			"primitives":[
				{
					"attributes":{
						"POSITION":11,
						"NORMAL":12
					},
					"indices":13,
					"material":2
				}
			]
		}
	],
	"textures":[
		{
			"sampler":0,
			"source":0
		}
	],
	"images":[
		{
			"mimeType":"image/png",
			"name":"checker",
			"uri":"checker.png"
		}
	],
	"accessors":[
		{
			"bufferView":0,
			"componentType":5126,
			"count":18025,
			"max":[
				0.25,
				1.0842783451080322,
				9.685754776000977e-08
			],
			"min":[
				-0.44999998807907104,
				-1.0842820405960083,
				-0.5000000596046448
			],
			"type":"VEC3"
		},
		{
			"bufferView":1,
			"componentType":5126,
			"count":18025,
			"type":"VEC3"
		},
		{
			"bufferView":2,
			"componentType":5126,
			"count":18025,
			"type":"VEC2"
		},
		{
			"bufferView":3,
			"componentType":5123,
			"count":18432,
			"type":"SCALAR"
		},
		{
			"bufferView":4,
			"componentType":5126,
			"count":35072,
			"max":[
				1.7640033960342407,
				1.7628817558288574,
				0.3088991045951843
			],
			"min":[
				-1.499267578125,
				-1.5003892183303833,
				-0.3963198959827423
			],
			"type":"VEC3"
		},
		{
			"bufferView":5,
			"componentType":5126,
			"count":35072,
			"type":"VEC3"
		},
		{
			"bufferView":6,
			"componentType":5123,
			"count":52608,
			"type":"SCALAR"
		},
		{
			"bufferView":7,
			"componentType":5126,
			"count":99859,
			"max":[
				1.1391098499298096,
				1.135077953338623,
				1.2183692455291748
			],
			"min":[
				-1.2757631540298462,
				-1.2797950506210327,
				-1.1578127145767212
			],
			"type":"VEC3"
		},
		{
			"bufferView":8,
			"componentType":5126,
			"count":99859,
			"type":"VEC3"
		},
		{
			"bufferView":9,
			"componentType":5126,
			"count":99859,
			"type":"VEC2"
		},
		{
			"bufferView":10,
			"componentType":5125,
			"count":149760,
			"type":"SCALAR"
		},
		{
			"bufferView":11,
			"componentType":5126,
			"count":26624,
			"max":[
				1.5703349113464355,
				1.570335865020752,
				0.9864987730979919
			],
			"min":[
				-1.570337176322937,
				-1.570336103439331,
				-1.522260308265686
			],
			"type":"VEC3"
		},
		{
			"bufferView":12,
			"componentType":5126,
			"count":26624,
			"type":"VEC3"
		},
		{
			"bufferView":13,
			"componentType":5123,
			"count":39936,
			"type":"SCALAR"
		}
	],
	"bufferViews":[
		{
			"buffer":0,
			"byteLength":216300,
			"byteOffset":0,
			"target":34962
		},
		{
			"buffer":0,
			"byteLength":216300,
			"byteOffset":216300,
			"target":34962
		},
		{
			"buffer":0,
			"byteLength":144200,
			"byteOffset":432600,
			"target":34962
		},
		{
			"buffer":0,
			"byteLength":36864,
			"byteOffset":576800,
			"target":34963
		},
		{
			"buffer":0,
			"byteLength":420864,
			"byteOffset":613664,
			"target":34962
		},
		{
			"buffer":0,
			"byteLength":420864,
			"byteOffset":1034528,
			"target":34962
		},
		{
			"buffer":0,
			"byteLength":105216,
			"byteOffset":1455392,
			"target":34963
		},
		{
			"buffer":0,
			"byteLength":1198308,
			"byteOffset":1560608,
			"target":34962
		},
		{
			"buffer":0,
			"byteLength":1198308,
			"byteOffset":2758916,
			"target":34962
		},
		{
			"buffer":0,
			"byteLength":798872,
			"byteOffset":3957224,
			"target":34962
		},
		{
			"buffer":0,
			"byteLength":599040,
			"byteOffset":4756096,
			"target":34963
		},
		{
			"buffer":0,
			"byteLength":319488,
			"byteOffset":5355136,
			"target":34962
		},
		{
			"buffer":0,
			"byteLength":319488,
			"byteOffset":5674624,
			"target":34962
		},
		{
			"buffer":0,
			"byteLength":79872,
			"byteOffset":5994112,
			"target":34963
		}
	],
	"samplers":[
		{
			"magFilter":9729,
			"minFilter":9987
		}
	],
	"buffers":[
		{
			"byteLength":6073984,
			"uri":"MaterialBall.bin"
		}
	]
}
