{
	"asset":{
		"generator":"Khronos glTF Blender I/O v4.0.44",
		"version":"2.0"
	},
	"extensionsUsed":[
		"KHR_materials_emissive_strength"
	],
	"scene":0,
	"scenes":[
		{
			"name":"Scene",
			"nodes":[
				0,
				1,
				2,
				3,
				4,
				5,
				6,
				7,
				8,
				9,
				10
			]
		}
	],
	"nodes":[
		{
			"mesh":0,
			"name":"Black_Glass_F_blinkers.005",
			"rotation":[
				0.70710688829422,
				0,
				0,
				0.7071066498756409
			]
		},
		{
			"mesh":1,
			"name":"Body_Glass_F_blinkers.002",
			"rotation":[
				0.70710688829422,
				0,
				0,
				0.7071066498756409
			]
		},
		{
			"mesh":2,
			"name":"Chrome_Glass_F_blinkers.008",
			"rotation":[
				0.70710688829422,
				0,
				0,
				0.7071066498756409
			]
		},
		{
			"mesh":3,
			"name":"Floor_Glass_F_blinkers",
			"rotation":[
				0.70710688829422,
				0,
				0,
				0.7071066498756409
			]
		},
		{
			"mesh":4,
			"name":"Front_Blinkers_Glass_F_blinkers.001",
			"rotation":[
				0.70710688829422,
				0,
				0,
				0.7071066498756409
			]
		},
		{
			"mesh":5,
			"name":"Glass_Glass_F_blinkers.004",
			"rotation":[
				0.70710688829422,
				0,
				0,
				0.7071066498756409
			]
		},
		{
			"mesh":6,
			"name":"Lights_Glass_F_blinkers.007",
			"rotation":[
				0.70710688829422,
				0,
				0,
				0.7071066498756409
			]
		},
		{
			"mesh":7,
			"name":"Red_Interior_Glass_F_blinkers.003",
			"rotation":[
				0.70710688829422,
				0,
				0,
				0.7071066498756409
			]
		},
		{
			"mesh":8,
			"name":"Tail_Lights_Glass_F_blinkers.006",
			"rotation":[
				0.70710688829422,
				0,
				0,
				0.7071066498756409
			]
		},
		{
			"mesh":9,
			"name":"Tyres_Glass_F_blinkers.009",
			"rotation":[
				0.70710688829422,
				0,
				0,
				0.7071066498756409
			]
		},
		{
			"mesh":10,
			"name":"Plane",
			"scale":[
				0.20000000298023224,
				0.20000000298023224,
				0.20000000298023224
			],
			"translation":[
				0,
				1.2499998807907104,
				-0.14000000059604645
			]
		}
	],
	"materials":[
		{
			"doubleSided":true,
			"name":"BlackInside",
			"pbrMetallicRoughness":{
				"baseColorFactor":[
					0,
					0,
					0,
					1
				],
				"metallicFactor":0
			}
		},
		{
			"doubleSided":true,
			"name":"Body",
			"pbrMetallicRoughness":{
				"baseColorFactor":[
					0.8001965880393982,
					0,
					0.0005581329460255802,
					1
				],
				"metallicFactor":0.20000000298023224,
				"roughnessFactor":0
			}
		},
		{
			"doubleSided":true,
			"name":"Chrome",
			"pbrMetallicRoughness":{
				"baseColorFactor":[
					0.8996708989143372,
					0.8996708989143372,
					0.8996708989143372,
					1
				],
				"roughnessFactor":0
			}
		},
		{
			"doubleSided":true,
			"name":"Floor",
			"pbrMetallicRoughness":{
				"baseColorFactor":[
					0,
					0,
					0,
					1
				],
				"metallicFactor":0
			}
		},
		{
			"doubleSided":true,
			"name":"FrontBlinkers",
			"pbrMetallicRoughness":{
				"baseColorFactor":[
					1,
					0.2800000011920929,
					0.12200000137090683,
					1
				],
				"metallicFactor":0,
				"roughnessFactor":0.15000000596046448
			}
		},
		{
			"doubleSided":true,
			"name":"Glass",
			"pbrMetallicRoughness":{
				"metallicFactor":0,
				"roughnessFactor":0
			}
		},
		{
			"doubleSided":true,
			"name":"Lights",
			"pbrMetallicRoughness":{
				"metallicFactor":0,
				"roughnessFactor":0.10000000149011612
			}
		},
		{
			"doubleSided":true,
			"name":"Interior",
			"pbrMetallicRoughness":{
				"baseColorFactor":[
					0.20000000298023224,
					0,
					0,
					1
				],
				"metallicFactor":0
			}
		},
		{
			"doubleSided":true,
			"name":"TailLights",
			"pbrMetallicRoughness":{
				"baseColorFactor":[
					0.5809999704360962,
					0,
					0,
					1
				],
				"metallicFactor":0.20000000298023224,
				"roughnessFactor":0
			}
		},
		{
			"doubleSided":true,
			"name":"Tyres",
			"pbrMetallicRoughness":{
				"baseColorFactor":[
					0,
					0,
					0,
					1
				],
				"metallicFactor":0,
				"roughnessFactor":0.5
			}
		},
		{
			"doubleSided":true,
			"emissiveFactor":[
				1,
				1,
				1
			],
			"extensions":{
				"KHR_materials_emissive_strength":{
					"emissiveStrength":10
				}
			},
			"name":"InsideLight",
			"pbrMetallicRoughness":{
				"metallicFactor":0
			}
		}
	],
	"meshes":[
		{
			"name":"Black_Glass_F_blinkers.005",
			"primitives":[
				{
					"attributes":{
						"POSITION":0,
						"NORMAL":1,
						"TEXCOORD_0":2
					},
					"indices":3,
					"material":0
				}
			]
		},
		{
			"name":"Body_Glass_F_blinkers.002",
			"primitives":[
				{
					"attributes":{
						"POSITION":4,
						"NORMAL":5,
						"TEXCOORD_0":6
					},
					"indices":7,
					"material":1
				}
			]
		},
		{
			"name":"Chrome_Glass_F_blinkers.008",
			"primitives":[
				{
					"attributes":{
						"POSITION":8,
						"NORMAL":9,
						"TEXCOORD_0":10
					},
					"indices":11,
					"material":2
				}
			]
		},
		{
			"name":"Floor_Glass_F_blinkers",
			"primitives":[
				{
					"attributes":{
						"POSITION":12,
						"NORMAL":13,
						"TEXCOORD_0":14
					},
					"indices":15,
					"material":3
				}
			]
		},
		{
			"name":"Front_Blinkers_Glass_F_blinkers.001",
			"primitives":[
				{
					"attributes":{
						"POSITION":16,
						"NORMAL":17,
						"TEXCOORD_0":18
					},
					"indices":19,
					"material":4
				}
			]
		},
		{
			"name":"Glass_Glass_F_blinkers.004",
			"primitives":[
				{
					"attributes":{
						"POSITION":20,
						"NORMAL":21,
						"TEXCOORD_0":22
					},
					"indices":23,
					"material":5
				}
			]
		},
		{
			"name":"Lights_Glass_F_blinkers.007",
			"primitives":[
				{
					"attributes":{
						"POSITION":24,
						"NORMAL":25,
						"TEXCOORD_0":26
					},
					"indices":27,
					"material":6
				}
			]
		},
		{
			"name":"Red_Interior_Glass_F_blinkers.003",
			"primitives":[
				{
					"attributes":{
						"POSITION":28,
						"NORMAL":29,
						"TEXCOORD_0":30
					},
					"indices":31,
					"material":7
				}
			]
		},
		{
			"name":"Tail_Lights_Glass_F_blinkers.006",
			"primitives":[
				{
					"attributes":{
						"POSITION":32,
						"NORMAL":33,
						"TEXCOORD_0":34
					},
					"indices":35,
					"material":8
				}
			]
		},
		{
			"name":"Tyres_Glass_F_blinkers.009",
			"primitives":[
				{
					"attributes":{
						"POSITION":36,
						"NORMAL":37,
						"TEXCOORD_0":38
					},
					"indices":39,
					"material":9
				}
			]
		},
		{
			"name":"Plane",
			"primitives":[
				{
					"attributes":{
						"POSITION":40,
						"NORMAL":41,
						"TEXCOORD_0":42
					},
					"indices":15,
					"material":10
				}
			]
		}
	],
	"accessors":[
		{
			"bufferView":0,
			"componentType":5126,
			"count":216189,
			"max":[
				0.8576769828796387,
				2.2025790214538574,
				-0.12135999649763107
			],
			"min":[
				-0.8576769828796387,
				-2.2086288928985596,
				-1.241881012916565
			],
			"type":"VEC3"
		},
		{
			"bufferView":1,
			"componentType":5126,
			"count":216189,
			"type":"VEC3"
		},
		{
			"bufferView":2,
			"componentType":5126,
			"count":216189,
			"type":"VEC2"
		},
		{
			"bufferView":3,
			"componentType":5125,
			"count":586098,
			"type":"SCALAR"
		},
		{
			"bufferView":4,
			"componentType":5126,
			"count":173288,
			"max":[
				0.8689450025558472,
				2.280100107192993,
				-0.1388619989156723
			],
			"min":[
				-0.8689450025558472,
				-2.275094985961914,
				-1.3065409660339355
			],
			"type":"VEC3"
		},
		{
			"bufferView":5,
			"componentType":5126,
			"count":173288,
			"type":"VEC3"
		},
		{
			"bufferView":6,
			"componentType":5126,
			"count":173288,
			"type":"VEC2"
		},
		{
			"bufferView":7,
			"componentType":5125,
			"count":963354,
			"type":"SCALAR"
		},
		{
			"bufferView":8,
			"componentType":5126,
			"count":284193,
			"max":[
				0.8819959759712219,
				2.3019649982452393,
				-0.100832998752594
			],
			"min":[
				-0.8819959759712219,
				-2.2958130836486816,
				-1.4153720140457153
			],
			"type":"VEC3"
		},
		{
			"bufferView":9,
			"componentType":5126,
			"count":284193,
			"type":"VEC3"
		},
		{
			"bufferView":10,
			"componentType":5126,
			"count":284193,
			"type":"VEC2"
		},
		{
			"bufferView":11,
			"componentType":5125,
			"count":1460559,
			"type":"SCALAR"
		},
		{
			"bufferView":12,
			"componentType":5126,
			"count":4,
			"max":[
				50,
				50,
				0
			],
			"min":[
				-50,
				-50,
				0
			],
			"type":"VEC3"
		},
		{
			"bufferView":13,
			"componentType":5126,
			"count":4,
			"type":"VEC3"
		},
		{
			"bufferView":14,
			"componentType":5126,
			"count":4,
			"type":"VEC2"
		},
		{
			"bufferView":15,
			"componentType":5123,
			"count":6,
			"type":"SCALAR"
		},
		{
			"bufferView":16,
			"componentType":5126,
			"count":1348,
			"max":[
				0.7375699877738953,
				2.092758893966675,
				-0.31680500507354736
			],
			"min":[
				-0.7375699877738953,
				2.0663950443267822,
				-0.3779900074005127
			],
			"type":"VEC3"
		},
		{
			"bufferView":17,
			"componentType":5126,
			"count":1348,
			"type":"VEC3"
		},
		{
			"bufferView":18,
			"componentType":5126,
			"count":1348,
			"type":"VEC2"
		},
		{
			"bufferView":19,
			"componentType":5123,
			"count":8064,
			"type":"SCALAR"
		},
		{
			"bufferView":20,
			"componentType":5126,
			"count":16248,
			"max":[
				0.7443600296974182,
				0.7171940207481384,
				-0.8506559729576111
			],
			"min":[
				-0.7443600296974182,
				-1.5599859952926636,
				-1.2533270120620728
			],
			"type":"VEC3"
		},
		{
			"bufferView":21,
			"componentType":5126,
			"count":16248,
			"type":"VEC3"
		},
		{
			"bufferView":22,
			"componentType":5126,
			"count":16248,
			"type":"VEC2"
		},
		{
			"bufferView":23,
			"componentType":5123,
			"count":71136,
			"type":"SCALAR"
		},
		{
			"bufferView":24,
			"componentType":5126,
			"count":5924,
			"max":[
				0.7917699813842773,
				2.2233541011810303,
				-0.3437789976596832
			],
			"min":[
				-0.7917699813842773,
				-2.2072250843048096,
				-0.7284650206565857
			],
			"type":"VEC3"
		},
		{
			"bufferView":25,
			"componentType":5126,
			"count":5924,
			"type":"VEC3"
		},
		{
			"bufferView":26,
			"componentType":5126,
			"count":5924,
			"type":"VEC2"
		},
		{
			"bufferView":27,
			"componentType":5123,
			"count":32256,
			"type":"SCALAR"
		},
		{
			"bufferView":28,
			"componentType":5126,
			"count":119319,
			"max":[
				0.7155420184135437,
				1.0369850397109985,
				-0.22931499779224396
			],
			"min":[
				-0.7155420184135437,
				-1.5447449684143066,
				-1.2647919654846191
			],
			"type":"VEC3"
		},
		{
			"bufferView":29,
			"componentType":5126,
			"count":119319,
			"type":"VEC3"
		},
		{
			"bufferView":30,
			"componentType":5126,
			"count":119319,
			"type":"VEC2"
		},
		{
			"bufferView":31,
			"componentType":5125,
			"count":601176,
			"type":"SCALAR"
		},
		{
			"bufferView":32,
			"componentType":5126,
			"count":5124,
			"max":[
				0.7150850296020508,
				-2.2463269233703613,
				-0.6078529953956604
			],
			"min":[
				-0.7150859832763672,
				-2.275186061859131,
				-0.7197669744491577
			],
			"type":"VEC3"
		},
		{
			"bufferView":33,
			"componentType":5126,
			"count":5124,
			"type":"VEC3"
		},
		{
			"bufferView":34,
			"componentType":5126,
			"count":5124,
			"type":"VEC2"
		},
		{
			"bufferView":35,
			"componentType":5123,
			"count":10416,
			"type":"SCALAR"
		},
		{
			"bufferView":36,
			"componentType":5126,
			"count":943328,
			"max":[
				0.8304479718208313,
				1.7617419958114624,
				0.015607999637722969
			],
			"min":[
				-0.8304479718208313,
				-1.5816240310668945,
				-0.5896530151367188
			],
			"type":"VEC3"
		},
		{
			"bufferView":37,
			"componentType":5126,
			"count":943328,
			"type":"VEC3"
		},
		{
			"bufferView":38,
			"componentType":5126,
			"count":943328,
			"type":"VEC2"
		},
		{
			"bufferView":39,
			"componentType":5125,
			"count":1783944,
			"type":"SCALAR"
		},
		{
			"bufferView":40,
			"componentType":5126,
			"count":4,
			"max":[
				1,
				0,
				1
			],
			"min":[
				-1,
				0,
				-1
			],
			"type":"VEC3"
		},
		{
			"bufferView":41,
			"componentType":5126,
			"count":4,
			"type":"VEC3"
		},
		{
			"bufferView":42,
			"componentType":5126,
			"count":4,
			"type":"VEC2"
		}
	],
	"bufferViews":[
		{
			"buffer":0,
			"byteLength":2594268,
			"byteOffset":0,
			"target":34962
		},
		{
			"buffer":0,
			"byteLength":2594268,
			"byteOffset":2594268,
			"target":34962
		},
		{
			"buffer":0,
			"byteLength":1729512,
			"byteOffset":5188536,
			"target":34962
		},
		{
			"buffer":0,
			"byteLength":2344392,
			"byteOffset":6918048,
			"target":34963
		},
		{
			"buffer":0,
			"byteLength":2079456,
			"byteOffset":9262440,
			"target":34962
		},
		{
			"buffer":0,
			"byteLength":2079456,
			"byteOffset":11341896,
			"target":34962
		},
		{
			"buffer":0,
			"byteLength":1386304,
			"byteOffset":13421352,
			"target":34962
		},
		{
			"buffer":0,
			"byteLength":3853416,
			"byteOffset":14807656,
			"target":34963
		},
		{
			"buffer":0,
			"byteLength":3410316,
			"byteOffset":18661072,
			"target":34962
		},
		{
			"buffer":0,
			"byteLength":3410316,
			"byteOffset":22071388,
			"target":34962
		},
		{
			"buffer":0,
			"byteLength":2273544,
			"byteOffset":25481704,
			"target":34962
		},
		{
			"buffer":0,
			"byteLength":5842236,
			"byteOffset":27755248,
			"target":34963
		},
		{
			"buffer":0,
			"byteLength":48,
			"byteOffset":33597484,
			"target":34962
		},
		{
			"buffer":0,
			"byteLength":48,
			"byteOffset":33597532,
			"target":34962
		},
		{
			"buffer":0,
			"byteLength":32,
			"byteOffset":33597580,
			"target":34962
		},
		{
			"buffer":0,
			"byteLength":12,
			"byteOffset":33597612,
			"target":34963
		},
		{
			"buffer":0,
			"byteLength":16176,
			"byteOffset":33597624,
			"target":34962
		},
		{
			"buffer":0,
			"byteLength":16176,
			"byteOffset":33613800,
			"target":34962
		},
		{
			"buffer":0,
			"byteLength":10784,
			"byteOffset":33629976,
			"target":34962
		},
		{
			"buffer":0,
			"byteLength":16128,
			"byteOffset":33640760,
			"target":34963
		},
		{
			"buffer":0,
			"byteLength":194976,
			"byteOffset":33656888,
			"target":34962
		},
		{
			"buffer":0,
			"byteLength":194976,
			"byteOffset":33851864,
			"target":34962
		},
		{
			"buffer":0,
			"byteLength":129984,
			"byteOffset":34046840,
			"target":34962
		},
		{
			"buffer":0,
			"byteLength":142272,
			"byteOffset":34176824,
			"target":34963
		},
		{
			"buffer":0,
			"byteLength":71088,
			"byteOffset":34319096,
			"target":34962
		},
		{
			"buffer":0,
			"byteLength":71088,
			"byteOffset":34390184,
			"target":34962
		},
		{
			"buffer":0,
			"byteLength":47392,
			"byteOffset":34461272,
			"target":34962
		},
		{
			"buffer":0,
			"byteLength":64512,
			"byteOffset":34508664,
			"target":34963
		},
		{
			"buffer":0,
			"byteLength":1431828,
			"byteOffset":34573176,
			"target":34962
		},
		{
			"buffer":0,
			"byteLength":1431828,
			"byteOffset":36005004,
			"target":34962
		},
		{
			"buffer":0,
			"byteLength":954552,
			"byteOffset":37436832,
			"target":34962
		},
		{
			"buffer":0,
			"byteLength":2404704,
			"byteOffset":38391384,
			"target":34963
		},
		{
			"buffer":0,
			"byteLength":61488,
			"byteOffset":40796088,
			"target":34962
		},
		{
			"buffer":0,
			"byteLength":61488,
			"byteOffset":40857576,
			"target":34962
		},
		{
			"buffer":0,
			"byteLength":40992,
			"byteOffset":40919064,
			"target":34962
		},
		{
			"buffer":0,
			"byteLength":20832,
			"byteOffset":40960056,
			"target":34963
		},
		{
			"buffer":0,
			"byteLength":11319936,
			"byteOffset":40980888,
			"target":34962
		},
		{
			"buffer":0,
			"byteLength":11319936,
			"byteOffset":52300824,
			"target":34962
		},
		{
			"buffer":0,
			"byteLength":7546624,
			"byteOffset":63620760,
			"target":34962
		},
		{
			"buffer":0,
			"byteLength":7135776,
			"byteOffset":71167384,
			"target":34963
		},
		{
			"buffer":0,
			"byteLength":48,
			"byteOffset":78303160,
			"target":34962
		},
		{
			"buffer":0,
			"byteLength":48,
			"byteOffset":78303208,
			"target":34962
		},
		{
			"buffer":0,
			"byteLength":32,
			"byteOffset":78303256,
			"target":34962
		}
	],
	"buffers":[
		{
			"byteLength":78303288,
			"uri":"mustang.bin"
		}
	]
}
