{
	"asset":{
		"generator":"Khronos glTF Blender I/O v4.0.44",
		"version":"2.0"
	},
	"scene":0,
	"scenes":[
		{
			"name":"Scene",
			"nodes":[
				0,
				1,
				2,
				3,
				4,
				5,
				6,
				7,
				8,
				9,
				10
			]
		}
	],
	"nodes":[
		{
			"mesh":0,
			"name":"Icosphere",
			"translation":[
				-10,
				0,
				0
			]
		},
		{
			"mesh":1,
			"name":"Icosphere.001",
			"translation":[
				-8,
				0,
				0
			]
		},
		{
			"mesh":2,
			"name":"Icosphere.002",
			"translation":[
				-6,
				0,
				0
			]
		},
		{
			"mesh":3,
			"name":"Icosphere.003",
			"translation":[
				-4,
				0,
				0
			]
		},
		{
			"mesh":4,
			"name":"Icosphere.004",
			"translation":[
				-2,
				0,
				0
			]
		},
		{
			"mesh":5,
			"name":"Icosphere.005"
		},
		{
			"mesh":6,
			"name":"Icosphere.006",
			"translation":[
				2,
				0,
				0
			]
		},
		{
			"mesh":7,
			"name":"Icosphere.007",
			"translation":[
				4,
				0,
				0
			]
		},
		{
			"mesh":8,
			"name":"Icosphere.008",
			"translation":[
				6,
				0,
				0
			]
		},
		{
			"mesh":9,
			"name":"Icosphere.009",
			"translation":[
				8,
				0,
				0
			]
		},
		{
			"mesh":10,
			"name":"Icosphere.010",
			"translation":[
				10,
				0,
				0
			]
		}
	],
	"materials":[
		{
			"doubleSided":true,
			"name":"Material.001",
			"pbrMetallicRoughness":{
				"baseColorFactor":[
					0.800000011920929,
					0.800000011920929,
					0.800000011920929,
					1
				],
				"metallicFactor":0,
				"roughnessFactor":0.5
			}
		},
		{
			"doubleSided":true,
			"name":"Material.002",
			"pbrMetallicRoughness":{
				"baseColorFactor":[
					0.800000011920929,
					0.800000011920929,
					0.800000011920929,
					1
				],
				"metallicFactor":0,
				"roughnessFactor":0.5
			}
		},
		{
			"doubleSided":true,
			"name":"Material.003",
			"pbrMetallicRoughness":{
				"baseColorFactor":[
					0.800000011920929,
					0.800000011920929,
					0.800000011920929,
					1
				],
				"metallicFactor":0,
				"roughnessFactor":0.5
			}
		},
		{
			"doubleSided":true,
			"name":"Material.004",
			"pbrMetallicRoughness":{
				"baseColorFactor":[
					0.800000011920929,
					0.800000011920929,
					0.800000011920929,
					1
				],
				"metallicFactor":0,
				"roughnessFactor":0.5
			}
		},
		{
			"doubleSided":true,
			"name":"Material.005",
			"pbrMetallicRoughness":{
				"baseColorFactor":[
					0.800000011920929,
					0.800000011920929,
					0.800000011920929,
					1
				],
				"metallicFactor":0,
				"roughnessFactor":0.5
			}
		},
		{
			"doubleSided":true,
			"name":"Material.006",
			"pbrMetallicRoughness":{
				"baseColorFactor":[
					0.800000011920929,
					0.800000011920929,
					0.800000011920929,
					1
				],
				"metallicFactor":0,
				"roughnessFactor":0.5
			}
		},
		{
			"doubleSided":true,
			"name":"Material.007",
			"pbrMetallicRoughness":{
				"baseColorFactor":[
					0.800000011920929,
					0.800000011920929,
					0.800000011920929,
					1
				],
				"metallicFactor":0,
				"roughnessFactor":0.5
			}
		},
		{
			"doubleSided":true,
			"name":"Material.008",
			"pbrMetallicRoughness":{
				"baseColorFactor":[
					0.800000011920929,
					0.800000011920929,
					0.800000011920929,
					1
				],
				"metallicFactor":0,
				"roughnessFactor":0.5
			}
		},
		{
			"doubleSided":true,
			"name":"Material.009",
			"pbrMetallicRoughness":{
				"baseColorFactor":[
					0.800000011920929,
					0.800000011920929,
					0.800000011920929,
					1
				],
				"metallicFactor":0,
				"roughnessFactor":0.5
			}
		},
		{
			"doubleSided":true,
			"name":"Material.010",
			"pbrMetallicRoughness":{
				"baseColorFactor":[
					0.800000011920929,
					0.800000011920929,
					0.800000011920929,
					1
				],
				"metallicFactor":0,
				"roughnessFactor":0.5
			}
		},
		{
			"doubleSided":true,
			"name":"Material.011",
			"pbrMetallicRoughness":{
				"baseColorFactor":[
					0.800000011920929,
					0.800000011920929,
					0.800000011920929,
					1
				],
				"metallicFactor":0,
				"roughnessFactor":0.5
			}
		}
	],
	"meshes":[
		{
			"name":"Icosphere",
			"primitives":[
				{
					"attributes":{
						"POSITION":0,
						"NORMAL":1,
						"TEXCOORD_0":2
					},
					"indices":3,
					"material":0
				}
			]
		},
		{
			"name":"Icosphere.014",
			"primitives":[
				{
					"attributes":{
						"POSITION":4,
						"NORMAL":5,
						"TEXCOORD_0":6
					},
					"indices":3,
					"material":1
				}
			]
		},
		{
			"name":"Icosphere.015",
			"primitives":[
				{
					"attributes":{
						"POSITION":7,
						"NORMAL":8,
						"TEXCOORD_0":9
					},
					"indices":3,
					"material":2
				}
			]
		},
		{
			"name":"Icosphere.016",
			"primitives":[
				{
					"attributes":{
						"POSITION":10,
						"NORMAL":11,
						"TEXCOORD_0":12
					},
					"indices":3,
					"material":3
				}
			]
		},
		{
			"name":"Icosphere.017",
			"primitives":[
				{
					"attributes":{
						"POSITION":13,
						"NORMAL":14,
						"TEXCOORD_0":15
					},
					"indices":3,
					"material":4
				}
			]
		},
		{
			"name":"Icosphere.018",
			"primitives":[
				{
					"attributes":{
						"POSITION":16,
						"NORMAL":17,
						"TEXCOORD_0":18
					},
					"indices":3,
					"material":5
				}
			]
		},
		{
			"name":"Icosphere.019",
			"primitives":[
				{
					"attributes":{
						"POSITION":19,
						"NORMAL":20,
						"TEXCOORD_0":21
					},
					"indices":3,
					"material":6
				}
			]
		},
		{
			"name":"Icosphere.020",
			"primitives":[
				{
					"attributes":{
						"POSITION":22,
						"NORMAL":23,
						"TEXCOORD_0":24
					},
					"indices":3,
					"material":7
				}
			]
		},
		{
			"name":"Icosphere.021",
			"primitives":[
				{
					"attributes":{
						"POSITION":25,
						"NORMAL":26,
						"TEXCOORD_0":27
					},
					"indices":3,
					"material":8
				}
			]
		},
		{
			"name":"Icosphere.022",
			"primitives":[
				{
					"attributes":{
						"POSITION":28,
						"NORMAL":29,
						"TEXCOORD_0":30
					},
					"indices":3,
					"material":9
				}
			]
		},
		{
			"name":"Icosphere.023",
			"primitives":[
				{
					"attributes":{
						"POSITION":31,
						"NORMAL":32,
						"TEXCOORD_0":33
					},
					"indices":3,
					"material":10
				}
			]
		}
	],
	"accessors":[
		{
			"bufferView":0,
			"componentType":5126,
			"count":2737,
			"max":[
				0.9216307401657104,
				0.9242449998855591,
				0.9217956066131592
			],
			"min":[
				-0.9216307401657104,
				-0.9242448806762695,
				-0.9217956066131592
			],
			"type":"VEC3"
		},
		{
			"bufferView":1,
			"componentType":5126,
			"count":2737,
			"type":"VEC3"
		},
		{
			"bufferView":2,
			"componentType":5126,
			"count":2737,
			"type":"VEC2"
		},
		{
			"bufferView":3,
			"componentType":5123,
			"count":15360,
			"type":"SCALAR"
		},
		{
			"bufferView":4,
			"componentType":5126,
			"count":2737,
			"max":[
				0.9216307401657104,
				0.9242449998855591,
				0.9217956066131592
			],
			"min":[
				-0.9216307401657104,
				-0.9242448806762695,
				-0.9217956066131592
			],
			"type":"VEC3"
		},
		{
			"bufferView":5,
			"componentType":5126,
			"count":2737,
			"type":"VEC3"
		},
		{
			"bufferView":6,
			"componentType":5126,
			"count":2737,
			"type":"VEC2"
		},
		{
			"bufferView":7,
			"componentType":5126,
			"count":2737,
			"max":[
				0.9216307401657104,
				0.9242449998855591,
				0.9217956066131592
			],
			"min":[
				-0.9216307401657104,
				-0.9242448806762695,
				-0.9217956066131592
			],
			"type":"VEC3"
		},
		{
			"bufferView":8,
			"componentType":5126,
			"count":2737,
			"type":"VEC3"
		},
		{
			"bufferView":9,
			"componentType":5126,
			"count":2737,
			"type":"VEC2"
		},
		{
			"bufferView":10,
			"componentType":5126,
			"count":2737,
			"max":[
				0.9216307401657104,
				0.9242449998855591,
				0.9217956066131592
			],
			"min":[
				-0.9216307401657104,
				-0.9242448806762695,
				-0.9217956066131592
			],
			"type":"VEC3"
		},
		{
			"bufferView":11,
			"componentType":5126,
			"count":2737,
			"type":"VEC3"
		},
		{
			"bufferView":12,
			"componentType":5126,
			"count":2737,
			"type":"VEC2"
		},
		{
			"bufferView":13,
			"componentType":5126,
			"count":2737,
			"max":[
				0.9216307401657104,
				0.9242449998855591,
				0.9217956066131592
			],
			"min":[
				-0.9216307401657104,
				-0.9242448806762695,
				-0.9217956066131592
			],
			"type":"VEC3"
		},
		{
			"bufferView":14,
			"componentType":5126,
			"count":2737,
			"type":"VEC3"
		},
		{
			"bufferView":15,
			"componentType":5126,
			"count":2737,
			"type":"VEC2"
		},
		{
			"bufferView":16,
			"componentType":5126,
			"count":2737,
			"max":[
				0.9216307401657104,
				0.9242449998855591,
				0.9217956066131592
			],
			"min":[
				-0.9216307401657104,
				-0.9242448806762695,
				-0.9217956066131592
			],
			"type":"VEC3"
		},
		{
			"bufferView":17,
			"componentType":5126,
			"count":2737,
			"type":"VEC3"
		},
		{
			"bufferView":18,
			"componentType":5126,
			"count":2737,
			"type":"VEC2"
		},
		{
			"bufferView":19,
			"componentType":5126,
			"count":2737,
			"max":[
				0.9216307401657104,
				0.9242449998855591,
				0.9217956066131592
			],
			"min":[
				-0.9216307401657104,
				-0.9242448806762695,
				-0.9217956066131592
			],
			"type":"VEC3"
		},
		{
			"bufferView":20,
			"componentType":5126,
			"count":2737,
			"type":"VEC3"
		},
		{
			"bufferView":21,
			"componentType":5126,
			"count":2737,
			"type":"VEC2"
		},
		{
			"bufferView":22,
			"componentType":5126,
			"count":2737,
			"max":[
				0.9216307401657104,
				0.9242449998855591,
				0.9217956066131592
			],
			"min":[
				-0.9216307401657104,
				-0.9242448806762695,
				-0.9217956066131592
			],
			"type":"VEC3"
		},
		{
			"bufferView":23,
			"componentType":5126,
			"count":2737,
			"type":"VEC3"
		},
		{
			"bufferView":24,
			"componentType":5126,
			"count":2737,
			"type":"VEC2"
		},
		{
			"bufferView":25,
			"componentType":5126,
			"count":2737,
			"max":[
				0.9216307401657104,
				0.9242449998855591,
				0.9217956066131592
			],
			"min":[
				-0.9216307401657104,
				-0.9242448806762695,
				-0.9217956066131592
			],
			"type":"VEC3"
		},
		{
			"bufferView":26,
			"componentType":5126,
			"count":2737,
			"type":"VEC3"
		},
		{
			"bufferView":27,
			"componentType":5126,
			"count":2737,
			"type":"VEC2"
		},
		{
			"bufferView":28,
			"componentType":5126,
			"count":2737,
			"max":[
				0.9216307401657104,
				0.9242449998855591,
				0.9217956066131592
			],
			"min":[
				-0.9216307401657104,
				-0.9242448806762695,
				-0.9217956066131592
			],
			"type":"VEC3"
		},
		{
			"bufferView":29,
			"componentType":5126,
			"count":2737,
			"type":"VEC3"
		},
		{
			"bufferView":30,
			"componentType":5126,
			"count":2737,
			"type":"VEC2"
		},
		{
			"bufferView":31,
			"componentType":5126,
			"count":2737,
			"max":[
				0.9216307401657104,
				0.9242449998855591,
				0.9217956066131592
			],
			"min":[
				-0.9216307401657104,
				-0.9242448806762695,
				-0.9217956066131592
			],
			"type":"VEC3"
		},
		{
			"bufferView":32,
			"componentType":5126,
			"count":2737,
			"type":"VEC3"
		},
		{
			"bufferView":33,
			"componentType":5126,
			"count":2737,
			"type":"VEC2"
		}
	],
	"bufferViews":[
		{
			"buffer":0,
			"byteLength":32844,
			"byteOffset":0,
			"target":34962
		},
		{
			"buffer":0,
			"byteLength":32844,
			"byteOffset":32844,
			"target":34962
		},
		{
			"buffer":0,
			"byteLength":21896,
			"byteOffset":65688,
			"target":34962
		},
		{
			"buffer":0,
			"byteLength":30720,
			"byteOffset":87584,
			"target":34963
		},
		{
			"buffer":0,
			"byteLength":32844,
			"byteOffset":118304,
			"target":34962
		},
		{
			"buffer":0,
			"byteLength":32844,
			"byteOffset":151148,
			"target":34962
		},
		{
			"buffer":0,
			"byteLength":21896,
			"byteOffset":183992,
			"target":34962
		},
		{
			"buffer":0,
			"byteLength":32844,
			"byteOffset":205888,
			"target":34962
		},
		{
			"buffer":0,
			"byteLength":32844,
			"byteOffset":238732,
			"target":34962
		},
		{
			"buffer":0,
			"byteLength":21896,
			"byteOffset":271576,
			"target":34962
		},
		{
			"buffer":0,
			"byteLength":32844,
			"byteOffset":293472,
			"target":34962
		},
		{
			"buffer":0,
			"byteLength":32844,
			"byteOffset":326316,
			"target":34962
		},
		{
			"buffer":0,
			"byteLength":21896,
			"byteOffset":359160,
			"target":34962
		},
		{
			"buffer":0,
			"byteLength":32844,
			"byteOffset":381056,
			"target":34962
		},
		{
			"buffer":0,
			"byteLength":32844,
			"byteOffset":413900,
			"target":34962
		},
		{
			"buffer":0,
			"byteLength":21896,
			"byteOffset":446744,
			"target":34962
		},
		{
			"buffer":0,
			"byteLength":32844,
			"byteOffset":468640,
			"target":34962
		},
		{
			"buffer":0,
			"byteLength":32844,
			"byteOffset":501484,
			"target":34962
		},
		{
			"buffer":0,
			"byteLength":21896,
			"byteOffset":534328,
			"target":34962
		},
		{
			"buffer":0,
			"byteLength":32844,
			"byteOffset":556224,
			"target":34962
		},
		{
			"buffer":0,
			"byteLength":32844,
			"byteOffset":589068,
			"target":34962
		},
		{
			"buffer":0,
			"byteLength":21896,
			"byteOffset":621912,
			"target":34962
		},
		{
			"buffer":0,
			"byteLength":32844,
			"byteOffset":643808,
			"target":34962
		},
		{
			"buffer":0,
			"byteLength":32844,
			"byteOffset":676652,
			"target":34962
		},
		{
			"buffer":0,
			"byteLength":21896,
			"byteOffset":709496,
			"target":34962
		},
		{
			"buffer":0,
			"byteLength":32844,
			"byteOffset":731392,
			"target":34962
		},
		{
			"buffer":0,
			"byteLength":32844,
			"byteOffset":764236,
			"target":34962
		},
		{
			"buffer":0,
			"byteLength":21896,
			"byteOffset":797080,
			"target":34962
		},
		{
			"buffer":0,
			"byteLength":32844,
			"byteOffset":818976,
			"target":34962
		},
		{
			"buffer":0,
			"byteLength":32844,
			"byteOffset":851820,
			"target":34962
		},
		{
			"buffer":0,
			"byteLength":21896,
			"byteOffset":884664,
			"target":34962
		},
		{
			"buffer":0,
			"byteLength":32844,
			"byteOffset":906560,
			"target":34962
		},
		{
			"buffer":0,
			"byteLength":32844,
			"byteOffset":939404,
			"target":34962
		},
		{
			"buffer":0,
			"byteLength":21896,
			"byteOffset":972248,
			"target":34962
		}
	],
	"buffers":[
		{
			"byteLength":994144,
			"uri":"spheres.bin"
		}
	]
}
