{
	"asset":{
		"generator":"Khronos glTF Blender I/O v4.0.44",
		"version":"2.0"
	},
	"extensionsUsed":[
		"KHR_materials_emissive_strength"
	],
	"scene":0,
	"scenes":[
		{
			"name":"Scene",
			"nodes":[
				0,
				1,
				2
			]
		}
	],
	"nodes":[
		{
			"mesh":0,
			"name":"Sphere",
			"translation":[
				3,
				0,
				0
			]
		},
		{
			"mesh":1,
			"name":"Cube",
			"scale":[
				100,
				1,
				100
			],
			"translation":[
				0,
				-2,
				0
			]
		},
		{
			"mesh":2,
			"name":"Sphere.001"
		}
	],
	"materials":[
		{
			"doubleSided":true,
			"emissiveFactor":[
				1,
				1,
				1
			],
			"extensions":{
				"KHR_materials_emissive_strength":{
					"emissiveStrength":4
				}
			},
			"name":"Material.001",
			"pbrMetallicRoughness":{
				"baseColorFactor":[
					0.800000011920929,
					0.800000011920929,
					0.800000011920929,
					1
				],
				"metallicFactor":0,
				"roughnessFactor":0.5
			}
		},
		{
			"doubleSided":true,
			"name":"Material.002",
			"pbrMetallicRoughness":{
				"metallicFactor":0
			}
		}
	],
	"meshes":[
		{
			"name":"Sphere",
			"primitives":[
				{
					"attributes":{
						"POSITION":0,
						"NORMAL":1,
						"TEXCOORD_0":2
					},
					"indices":3,
					"material":0
				}
			]
		},
		{
			"name":"Cube.001",
			"primitives":[
				{
					"attributes":{
						"POSITION":4,
						"NORMAL":5,
						"TEXCOORD_0":6
					},
					"indices":7,
					"material":1
				}
			]
		},
		{
			"name":"Sphere.001",
			"primitives":[
				{
					"attributes":{
						"POSITION":8,
						"NORMAL":9,
						"TEXCOORD_0":10
					},
					"indices":3,
					"material":1
				}
			]
		}
	],
	"accessors":[
		{
			"bufferView":0,
			"componentType":5126,
			"count":2077,
			"max":[
				0.9944238662719727,
				1.0087052583694458,
				0.9944236278533936
			],
			"min":[
				-0.9944233894348145,
				-1.0087047815322876,
				-0.9944239854812622
			],
			"type":"VEC3"
		},
		{
			"bufferView":1,
			"componentType":5126,
			"count":2077,
			"type":"VEC3"
		},
		{
			"bufferView":2,
			"componentType":5126,
			"count":2077,
			"type":"VEC2"
		},
		{
			"bufferView":3,
			"componentType":5123,
			"count":11520,
			"type":"SCALAR"
		},
		{
			"bufferView":4,
			"componentType":5126,
			"count":24,
			"max":[
				1,
				1,
				1
			],
			"min":[
				-1,
				-1,
				-1
			],
			"type":"VEC3"
		},
		{
			"bufferView":5,
			"componentType":5126,
			"count":24,
			"type":"VEC3"
		},
		{
			"bufferView":6,
			"componentType":5126,
			"count":24,
			"type":"VEC2"
		},
		{
			"bufferView":7,
			"componentType":5123,
			"count":36,
			"type":"SCALAR"
		},
		{
			"bufferView":8,
			"componentType":5126,
			"count":2077,
			"max":[
				0.9944238662719727,
				1.0087052583694458,
				0.9944236278533936
			],
			"min":[
				-0.9944233894348145,
				-1.0087047815322876,
				-0.9944239854812622
			],
			"type":"VEC3"
		},
		{
			"bufferView":9,
			"componentType":5126,
			"count":2077,
			"type":"VEC3"
		},
		{
			"bufferView":10,
			"componentType":5126,
			"count":2077,
			"type":"VEC2"
		}
	],
	"bufferViews":[
		{
			"buffer":0,
			"byteLength":24924,
			"byteOffset":0,
			"target":34962
		},
		{
			"buffer":0,
			"byteLength":24924,
			"byteOffset":24924,
			"target":34962
		},
		{
			"buffer":0,
			"byteLength":16616,
			"byteOffset":49848,
			"target":34962
		},
		{
			"buffer":0,
			"byteLength":23040,
			"byteOffset":66464,
			"target":34963
		},
		{
			"buffer":0,
			"byteLength":288,
			"byteOffset":89504,
			"target":34962
		},
		{
			"buffer":0,
			"byteLength":288,
			"byteOffset":89792,
			"target":34962
		},
		{
			"buffer":0,
			"byteLength":192,
			"byteOffset":90080,
			"target":34962
		},
		{
			"buffer":0,
			"byteLength":72,
			"byteOffset":90272,
			"target":34963
		},
		{
			"buffer":0,
			"byteLength":24924,
			"byteOffset":90344,
			"target":34962
		},
		{
			"buffer":0,
			"byteLength":24924,
			"byteOffset":115268,
			"target":34962
		},
		{
			"buffer":0,
			"byteLength":16616,
			"byteOffset":140192,
			"target":34962
		}
	],
	"buffers":[
		{
			"byteLength":156808,
			"uri":"spheres_in_the_dark.bin"
		}
	]
}
