{
	"asset":{
		"generator":"Khronos glTF Blender I/O v4.0.44",
		"version":"2.0"
	},
	"extensionsUsed":[
		"KHR_materials_emissive_strength"
	],
	"scene":0,
	"scenes":[
		{
			"name":"Scene",
			"nodes":[
				0,
				1,
				2,
				3,
				4,
				5,
				6,
				7,
				8,
				9
			]
		}
	],
	"nodes":[
		{
			"mesh":0,
			"name":"Circle",
			"rotation":[
				0.4937154948711395,
				0,
				0,
				0.8696234822273254
			],
			"scale":[
				11.315628051757812,
				11.315630912780762,
				11.315630912780762
			],
			"translation":[
				0.7580199241638184,
				16.88822364807129,
				26.960840225219727
			]
		},
		{
			"mesh":1,
			"name":"Cube.005",
			"scale":[
				5.2856125831604,
				2.4224109649658203,
				5.2856125831604
			],
			"translation":[
				-1.158179759979248,
				-4.264226913452148,
				-1.3486042022705078
			]
		},
		{
			"name":"Cube.006",
			"scale":[
				5.689032077789307,
				5.689032077789307,
				5.689032077789307
			],
			"translation":[
				0.758018970489502,
				-1.1492068767547607,
				-2.918027877807617
			]
		},
		{
			"mesh":2,
			"name":"Plane",
			"rotation":[
				0,
				0.9981846809387207,
				0,
				0.06022890657186508
			],
			"scale":[
				5.689034938812256,
				5.689032077789307,
				5.689034938812256
			],
			"translation":[
				-1.158179759979248,
				-4.264226913452148,
				-1.3486042022705078
			]
		},
		{
			"mesh":3,
			"name":"xicara",
			"rotation":[
				0,
				0.10272395610809326,
				0,
				0.9947099089622498
			],
			"scale":[
				5.6890339851379395,
				5.689032077789307,
				5.6890339851379395
			],
			"translation":[
				-1.158179759979248,
				-4.264226913452148,
				-1.3486042022705078
			]
		},
		{
			"mesh":4,
			"name":"copo",
			"rotation":[
				0,
				0.10272395610809326,
				0,
				0.9947099089622498
			],
			"scale":[
				5.6890339851379395,
				5.689032077789307,
				5.6890339851379395
			],
			"translation":[
				-1.158179759979248,
				-4.264226913452148,
				-1.3486042022705078
			]
		},
		{
			"mesh":5,
			"name":"Plane.001",
			"rotation":[
				-0.3220435082912445,
				-0.8948131799697876,
				0.07950799912214279,
				0.29879066348075867
			],
			"scale":[
				0.6396083831787109,
				0.6396083831787109,
				0.6396084427833557
			],
			"translation":[
				-3.019026279449463,
				-1.151651382446289,
				0.9145140647888184
			]
		},
		{
			"mesh":6,
			"name":"Cube.018",
			"scale":[
				5.689032077789307,
				5.689032077789307,
				5.689032077789307
			],
			"translation":[
				-1.158179759979248,
				-4.264226913452148,
				-1.3486042022705078
			]
		},
		{
			"name":"Empty",
			"scale":[
				5.689032077789307,
				5.689032077789307,
				5.689032077789307
			],
			"translation":[
				0.758018970489502,
				-1.1492068767547607,
				-2.918027877807617
			]
		},
		{
			"mesh":7,
			"name":"copo.002",
			"rotation":[
				0,
				0.10272395610809326,
				0,
				0.9947099089622498
			],
			"scale":[
				5.6890339851379395,
				5.689032077789307,
				5.6890339851379395
			],
			"translation":[
				-1.158179759979248,
				-4.264226913452148,
				-1.3486042022705078
			]
		}
	],
	"animations":[
		{
			"channels":[
				{
					"sampler":0,
					"target":{
						"node":1,
						"path":"scale"
					}
				}
			],
			"name":"Cube.005Action.001",
			"samplers":[
				{
					"input":24,
					"interpolation":"LINEAR",
					"output":25
				}
			]
		}
	],
	"materials":[
		{
			"doubleSided":true,
			"emissiveFactor":[
				1,
				1,
				1
			],
			"extensions":{
				"KHR_materials_emissive_strength":{
					"emissiveStrength":10
				}
			},
			"name":"luz.001",
			"pbrMetallicRoughness":{
				"baseColorFactor":[
					0,
					0,
					0,
					1
				]
			}
		},
		{
			"doubleSided":true,
			"name":"cafe.001",
			"pbrMetallicRoughness":{}
		},
		{
			"doubleSided":true,
			"name":"porcelana.001",
			"pbrMetallicRoughness":{}
		},
		{
			"doubleSided":true,
			"name":"Material.004",
			"pbrMetallicRoughness":{}
		}
	],
	"meshes":[
		{
			"name":"Circle.001",
			"primitives":[
				{
					"attributes":{
						"POSITION":0,
						"NORMAL":1
					},
					"indices":2,
					"material":0
				}
			]
		},
		{
			"name":"Cube.001",
			"primitives":[
				{
					"attributes":{
						"POSITION":3,
						"NORMAL":4
					},
					"indices":5,
					"material":1
				}
			]
		},
		{
			"name":"Mesh",
			"primitives":[
				{
					"attributes":{
						"POSITION":6,
						"NORMAL":7
					},
					"indices":8
				}
			]
		},
		{
			"name":"Mesh.002",
			"primitives":[
				{
					"attributes":{
						"POSITION":9,
						"NORMAL":10
					},
					"indices":11,
					"material":2
				}
			]
		},
		{
			"name":"Mesh.003",
			"primitives":[
				{
					"attributes":{
						"POSITION":12,
						"NORMAL":13
					},
					"indices":14,
					"material":2
				}
			]
		},
		{
			"name":"Mesh.004",
			"primitives":[
				{
					"attributes":{
						"POSITION":15,
						"NORMAL":16
					},
					"indices":17,
					"material":3
				}
			]
		},
		{
			"name":"Cube.002",
			"primitives":[
				{
					"attributes":{
						"POSITION":18,
						"NORMAL":19
					},
					"indices":20,
					"material":1
				}
			]
		},
		{
			"name":"Cube.004",
			"primitives":[
				{
					"attributes":{
						"POSITION":21,
						"NORMAL":22
					},
					"indices":23,
					"material":1
				}
			]
		}
	],
	"accessors":[
		{
			"bufferView":0,
			"componentType":5126,
			"count":16,
			"max":[
				1,
				0,
				1
			],
			"min":[
				-1,
				0,
				-1
			],
			"type":"VEC3"
		},
		{
			"bufferView":1,
			"componentType":5126,
			"count":16,
			"type":"VEC3"
		},
		{
			"bufferView":2,
			"componentType":5123,
			"count":48,
			"type":"SCALAR"
		},
		{
			"bufferView":3,
			"componentType":5126,
			"count":17694,
			"max":[
				1.2960238456726074,
				-0.14636960625648499,
				0.35733282566070557
			],
			"min":[
				-0.2526283264160156,
				-0.8863104581832886,
				-1.2173789739608765
			],
			"type":"VEC3"
		},
		{
			"bufferView":4,
			"componentType":5126,
			"count":17694,
			"type":"VEC3"
		},
		{
			"bufferView":5,
			"componentType":5123,
			"count":105960,
			"type":"SCALAR"
		},
		{
			"bufferView":6,
			"componentType":5126,
			"count":3202,
			"max":[
				1.248922348022461,
				0.5368504524230957,
				0.04861913248896599
			],
			"min":[
				0.4916994571685791,
				-0.46303755044937134,
				-0.048619188368320465
			],
			"type":"VEC3"
		},
		{
			"bufferView":7,
			"componentType":5126,
			"count":3202,
			"type":"VEC3"
		},
		{
			"bufferView":8,
			"componentType":5123,
			"count":19200,
			"type":"SCALAR"
		},
		{
			"bufferView":9,
			"componentType":5126,
			"count":1986,
			"max":[
				0.9849026799201965,
				-0.5192299485206604,
				0.9849028587341309
			],
			"min":[
				-0.9849026799201965,
				-0.6283673048019409,
				-0.9849024415016174
			],
			"type":"VEC3"
		},
		{
			"bufferView":10,
			"componentType":5126,
			"count":1986,
			"type":"VEC3"
		},
		{
			"bufferView":11,
			"componentType":5123,
			"count":11904,
			"type":"SCALAR"
		},
		{
			"bufferView":12,
			"componentType":5126,
			"count":12290,
			"max":[
				0.8266481161117554,
				0.6373782157897949,
				0.8266484141349792
			],
			"min":[
				-0.8266482949256897,
				-0.5829468369483948,
				-0.8266482353210449
			],
			"type":"VEC3"
		},
		{
			"bufferView":13,
			"componentType":5126,
			"count":12290,
			"type":"VEC3"
		},
		{
			"bufferView":14,
			"componentType":5123,
			"count":73728,
			"type":"SCALAR"
		},
		{
			"bufferView":15,
			"componentType":5126,
			"count":4059,
			"max":[
				14.009920120239258,
				0.7216508984565735,
				1.0820012092590332
			],
			"min":[
				-1.3280314207077026,
				-0.4694735109806061,
				-1.0820012092590332
			],
			"type":"VEC3"
		},
		{
			"bufferView":16,
			"componentType":5126,
			"count":4059,
			"type":"VEC3"
		},
		{
			"bufferView":17,
			"componentType":5123,
			"count":23808,
			"type":"SCALAR"
		},
		{
			"bufferView":18,
			"componentType":5126,
			"count":2486,
			"max":[
				0.45204657316207886,
				1.252870798110962,
				-0.039723023772239685
			],
			"min":[
				-0.8058696985244751,
				0.5473974943161011,
				-0.8717749714851379
			],
			"type":"VEC3"
		},
		{
			"bufferView":19,
			"componentType":5126,
			"count":2486,
			"type":"VEC3"
		},
		{
			"bufferView":20,
			"componentType":5123,
			"count":14664,
			"type":"SCALAR"
		},
		{
			"bufferView":21,
			"componentType":5126,
			"count":25557,
			"max":[
				0.8312921524047852,
				1.7421760559082031,
				0.8313076496124268
			],
			"min":[
				-0.8285840153694153,
				0.44319766759872437,
				-0.9353105425834656
			],
			"type":"VEC3"
		},
		{
			"bufferView":22,
			"componentType":5126,
			"count":25557,
			"type":"VEC3"
		},
		{
			"bufferView":23,
			"componentType":5123,
			"count":152832,
			"type":"SCALAR"
		},
		{
			"bufferView":24,
			"componentType":5126,
			"count":10,
			"max":[
				0.375
			],
			"min":[
				0
			],
			"type":"SCALAR"
		},
		{
			"bufferView":25,
			"componentType":5126,
			"count":10,
			"type":"VEC3"
		}
	],
	"bufferViews":[
		{
			"buffer":0,
			"byteLength":192,
			"byteOffset":0,
			"target":34962
		},
		{
			"buffer":0,
			"byteLength":192,
			"byteOffset":192,
			"target":34962
		},
		{
			"buffer":0,
			"byteLength":96,
			"byteOffset":384,
			"target":34963
		},
		{
			"buffer":0,
			"byteLength":212328,
			"byteOffset":480,
			"target":34962
		},
		{
			"buffer":0,
			"byteLength":212328,
			"byteOffset":212808,
			"target":34962
		},
		{
			"buffer":0,
			"byteLength":211920,
			"byteOffset":425136,
			"target":34963
		},
		{
			"buffer":0,
			"byteLength":38424,
			"byteOffset":637056,
			"target":34962
		},
		{
			"buffer":0,
			"byteLength":38424,
			"byteOffset":675480,
			"target":34962
		},
		{
			"buffer":0,
			"byteLength":38400,
			"byteOffset":713904,
			"target":34963
		},
		{
			"buffer":0,
			"byteLength":23832,
			"byteOffset":752304,
			"target":34962
		},
		{
			"buffer":0,
			"byteLength":23832,
			"byteOffset":776136,
			"target":34962
		},
		{
			"buffer":0,
			"byteLength":23808,
			"byteOffset":799968,
			"target":34963
		},
		{
			"buffer":0,
			"byteLength":147480,
			"byteOffset":823776,
			"target":34962
		},
		{
			"buffer":0,
			"byteLength":147480,
			"byteOffset":971256,
			"target":34962
		},
		{
			"buffer":0,
			"byteLength":147456,
			"byteOffset":1118736,
			"target":34963
		},
		{
			"buffer":0,
			"byteLength":48708,
			"byteOffset":1266192,
			"target":34962
		},
		{
			"buffer":0,
			"byteLength":48708,
			"byteOffset":1314900,
			"target":34962
		},
		{
			"buffer":0,
			"byteLength":47616,
			"byteOffset":1363608,
			"target":34963
		},
		{
			"buffer":0,
			"byteLength":29832,
			"byteOffset":1411224,
			"target":34962
		},
		{
			"buffer":0,
			"byteLength":29832,
			"byteOffset":1441056,
			"target":34962
		},
		{
			"buffer":0,
			"byteLength":29328,
			"byteOffset":1470888,
			"target":34963
		},
		{
			"buffer":0,
			"byteLength":306684,
			"byteOffset":1500216,
			"target":34962
		},
		{
			"buffer":0,
			"byteLength":306684,
			"byteOffset":1806900,
			"target":34962
		},
		{
			"buffer":0,
			"byteLength":305664,
			"byteOffset":2113584,
			"target":34963
		},
		{
			"buffer":0,
			"byteLength":40,
			"byteOffset":2419248
		},
		{
			"buffer":0,
			"byteLength":120,
			"byteOffset":2419288
		}
	],
	"buffers":[
		{
			"byteLength":2419408,
			"uri":"x6.bin"
		}
	]
}
