{
	"asset":{
		"generator":"Khronos glTF Blender I/O v4.0.44",
		"version":"2.0"
	},
	"scene":0,
	"scenes":[
		{
			"name":"Scene",
			"nodes":[
				0,
				1
			]
		}
	],
	"nodes":[
		{
			"mesh":0,
			"name":"Icosphere"
		},
		{
			"camera":0,
			"name":"Camera",
			"rotation":[
				0,
				-1,
				0,
				4.371138828673793e-08
			],
			"translation":[
				0,
				0,
				-3
			]
		}
	],
	"cameras":[
		{
			"name":"Camera.001",
			"perspective":{
				"aspectRatio":1,
				"yfov":0.6911112070083618,
				"zfar":1000,
				"znear":0.10000000149011612
			},
			"type":"perspective"
		}
	],
	"meshes":[
		{
			"name":"Icosphere",
			"primitives":[
				{
					"attributes":{
						"POSITION":0,
						"NORMAL":1,
						"TEXCOORD_0":2
					},
					"indices":3
				}
			]
		}
	],
	"accessors":[
		{
			"bufferView":0,
			"componentType":5126,
			"count":3840,
			"max":[
				0.8832535743713379,
				0.9004919528961182,
				0.8843232989311218
			],
			"min":[
				-0.8832535743713379,
				-0.9004919528961182,
				-0.8843232989311218
			],
			"type":"VEC3"
		},
		{
			"bufferView":1,
			"componentType":5126,
			"count":3840,
			"type":"VEC3"
		},
		{
			"bufferView":2,
			"componentType":5126,
			"count":3840,
			"type":"VEC2"
		},
		{
			"bufferView":3,
			"componentType":5123,
			"count":3840,
			"type":"SCALAR"
		}
	],
	"bufferViews":[
		{
			"buffer":0,
			"byteLength":46080,
			"byteOffset":0,
			"target":34962
		},
		{
			"buffer":0,
			"byteLength":46080,
			"byteOffset":46080,
			"target":34962
		},
		{
			"buffer":0,
			"byteLength":30720,
			"byteOffset":92160,
			"target":34962
		},
		{
			"buffer":0,
			"byteLength":7680,
			"byteOffset":122880,
			"target":34963
		}
	],
	"buffers":[
		{
			"byteLength":130560,
			"uri":"FurnaceTest.bin"
		}
	]
}
