{
	"asset":{
		"generator":"Khronos glTF Blender I/O v4.5.47",
		"version":"2.0"
	},
	"extensionsUsed":[
		"KHR_materials_transmission",
		"KHR_materials_specular"
	],
	"scene":0,
	"scenes":[
		{
			"name":"Scene",
			"nodes":[
				0,
				1,
				2
			]
		}
	],
	"nodes":[
		{
			"mesh":0,
			"name":"background",
			"rotation":[
				0.70710688829422,
				0,
				0,
				0.7071066498756409
			],
			"scale":[
				5,
				4.999999046325684,
				4.999999046325684
			]
		},
		{
			"mesh":1,
			"name":"mitsuba-sphere",
			"rotation":[
				0.5,
				0.5,
				-0.5,
				0.5000000596046448
			],
			"scale":[
				0.30000001192092896,
				0.30000001192092896,
				0.30000001192092896
			]
		},
		{
			"camera":0,
			"name":"Camera",
			"rotation":[
				-0.1530459076166153,
				0.6903455257415771,
				0.1530459225177765,
				0.6903455853462219
			],
			"translation":[
				2,
				1.149999976158142,
				0
			]
		}
	],
	"cameras":[
		{
			"name":"Camera.002",
			"perspective":{
				"aspectRatio":1,
				"yfov":0.4035246968269348,
				"zfar":1000,
				"znear":0.10000000149011612
			},
			"type":"perspective"
		}
	],
	"materials":[
		{
			"doubleSided":true,
			"name":"Background",
			"pbrMetallicRoughness":{
				"baseColorTexture":{
					"index":0
				},
				"metallicFactor":0,
				"roughnessFactor":0.5
			}
		},
		{
			"doubleSided":true,
			"extensions":{
				"KHR_materials_transmission":{
					"transmissionFactor":1
				},
				"KHR_materials_specular":{
					"specularFactor":0
				}
			},
			"name":"inside.002",
			"pbrMetallicRoughness":{
				"baseColorFactor":[
					0.5879999995231628,
					0.5879999995231628,
					0.5879999995231628,
					1
				],
				"metallicFactor":0,
				"roughnessFactor":0.8999999761581421
			}
		},
		{
			"doubleSided":true,
			"extensions":{
				"KHR_materials_transmission":{
					"transmissionFactor":1
				},
				"KHR_materials_specular":{
					"specularColorFactor":[
						1.399999976158142,
						1.399999976158142,
						1.399999976158142
					]
				}
			},
			"name":"case.002",
			"pbrMetallicRoughness":{
				"baseColorFactor":[
					0.4860000014305115,
					0.6309999823570251,
					0.6629999876022339,
					1
				],
				"metallicFactor":0,
				"roughnessFactor":0.8211145401000977
			}
		}
	],
	"meshes":[
		{
			"name":"background",
			"primitives":[
				{
					"attributes":{
						"POSITION":0,
						"NORMAL":1,
						"TEXCOORD_0":2
					},
					"indices":3,
					"material":0
				}
			]
		},
		{
			"name":"mitsuba-sphere",
			"primitives":[
				{
					"attributes":{
						"POSITION":4,
						"NORMAL":5,
						"TEXCOORD_0":6
					},
					"indices":7,
					"material":1
				},
				{
					"attributes":{
						"POSITION":8,
						"NORMAL":9,
						"TEXCOORD_0":10
					},
					"indices":11,
					"material":2
				}
			]
		}
	],
	"textures":[
		{
			"sampler":0,
			"source":0
		}
	],
	"images":[
		{
			"mimeType":"image/png",
			"name":"checker",
			"uri":"checker.png"
		}
	],
	"accessors":[
		{
			"bufferView":0,
			"componentType":5126,
			"count":18031,
			"max":[
				0.25,
				1.0842783451080322,
				9.685754776000977e-08
			],
			"min":[
				-0.44999998807907104,
				-1.0842820405960083,
				-0.5000000596046448
			],
			"type":"VEC3"
		},
		{
			"bufferView":1,
			"componentType":5126,
			"count":18031,
			"type":"VEC3"
		},
		{
			"bufferView":2,
			"componentType":5126,
			"count":18031,
			"type":"VEC2"
		},
		{
			"bufferView":3,
			"componentType":5123,
			"count":18432,
			"type":"SCALAR"
		},
		{
			"bufferView":4,
			"componentType":5126,
			"count":2078,
			"max":[
				1.1527999639511108,
				1.1619999408721924,
				0.03869999945163727
			],
			"min":[
				-1.1527999639511108,
				-1.1438000202178955,
				-2.0973000526428223
			],
			"type":"VEC3"
		},
		{
			"bufferView":5,
			"componentType":5126,
			"count":2078,
			"type":"VEC3"
		},
		{
			"bufferView":6,
			"componentType":5126,
			"count":2078,
			"type":"VEC2"
		},
		{
			"bufferView":7,
			"componentType":5123,
			"count":11808,
			"type":"SCALAR"
		},
		{
			"bufferView":8,
			"componentType":5126,
			"count":29390,
			"max":[
				1.2199000120162964,
				1.1426000595092773,
				0.01940000057220459
			],
			"min":[
				-1.2199000120162964,
				-1.080299973487854,
				-2.170300006866455
			],
			"type":"VEC3"
		},
		{
			"bufferView":9,
			"componentType":5126,
			"count":29390,
			"type":"VEC3"
		},
		{
			"bufferView":10,
			"componentType":5126,
			"count":29390,
			"type":"VEC2"
		},
		{
			"bufferView":11,
			"componentType":5123,
			"count":171456,
			"type":"SCALAR"
		}
	],
	"bufferViews":[
		{
			"buffer":0,
			"byteLength":216372,
			"byteOffset":0,
			"target":34962
		},
		{
			"buffer":0,
			"byteLength":216372,
			"byteOffset":216372,
			"target":34962
		},
		{
			"buffer":0,
			"byteLength":144248,
			"byteOffset":432744,
			"target":34962
		},
		{
			"buffer":0,
			"byteLength":36864,
			"byteOffset":576992,
			"target":34963
		},
		{
			"buffer":0,
			"byteLength":24936,
			"byteOffset":613856,
			"target":34962
		},
		{
			"buffer":0,
			"byteLength":24936,
			"byteOffset":638792,
			"target":34962
		},
		{
			"buffer":0,
			"byteLength":16624,
			"byteOffset":663728,
			"target":34962
		},
		{
			"buffer":0,
			"byteLength":23616,
			"byteOffset":680352,
			"target":34963
		},
		{
			"buffer":0,
			"byteLength":352680,
			"byteOffset":703968,
			"target":34962
		},
		{
			"buffer":0,
			"byteLength":352680,
			"byteOffset":1056648,
			"target":34962
		},
		{
			"buffer":0,
			"byteLength":235120,
			"byteOffset":1409328,
			"target":34962
		},
		{
			"buffer":0,
			"byteLength":342912,
			"byteOffset":1644448,
			"target":34963
		}
	],
	"samplers":[
		{
			"magFilter":9729,
			"minFilter":9987
		}
	],
	"buffers":[
		{
			"byteLength":1987360,
			"uri":"MitsubaBall.bin"
		}
	]
}
