{
	"asset":{
		"generator":"Khronos glTF Blender I/O v4.5.47",
		"version":"2.0"
	},
	"scene":0,
	"scenes":[
		{
			"name":"Scene",
			"nodes":[
				0,
				1,
				2,
				3,
				4,
				5,
				6,
				7
			]
		}
	],
	"nodes":[
		{
			"mesh":0,
			"name":"Plane",
			"scale":[
				25,
				1,
				25
			]
		},
		{
			"mesh":1,
			"name":"Cube",
			"rotation":[
				0,
				0,
				-0.7071068286895752,
				0.7071068286895752
			],
			"scale":[
				5,
				0.10000000149011612,
				10
			],
			"translation":[
				-12,
				5,
				5
			]
		},
		{
			"mesh":2,
			"name":"Cube.001",
			"rotation":[
				-0.5,
				0.5,
				-0.5,
				0.5
			],
			"scale":[
				5,
				0.10000000149011612,
				15
			],
			"translation":[
				3,
				5,
				15
			]
		},
		{
			"mesh":3,
			"name":"Cube.002",
			"rotation":[
				0,
				0,
				-0.7071068286895752,
				0.7071068286895752
			],
			"scale":[
				5,
				0.10000000149011612,
				10
			],
			"translation":[
				18,
				5,
				5
			]
		},
		{
			"mesh":4,
			"name":"Cube.003",
			"rotation":[
				0,
				0.7071068286895752,
				0,
				0.7071068286895752
			],
			"scale":[
				10,
				0.10000000149011612,
				15
			],
			"translation":[
				3,
				10,
				5
			]
		},
		{
			"mesh":5,
			"name":"Cube.004",
			"rotation":[
				-0.5,
				0.5,
				-0.5,
				0.5
			],
			"scale":[
				5,
				0.10000000149011612,
				15
			],
			"translation":[
				3,
				5,
				-5
			]
		},
		{
			"mesh":6,
			"name":"Suzanne",
			"translation":[
				7.326311111450195,
				6.3425984382629395,
				-2.4373059272766113
			]
		},
		{
			"camera":0,
			"name":"Camera",
			"rotation":[
				-0.041598495095968246,
				-0.3984786868095398,
				-0.005535263568162918,
				0.9162171483039856
			],
			"translation":[
				-9.640812873840332,
				7.035920143127441,
				13.351030349731445
			]
		}
	],
	"cameras":[
		{
			"name":"Camera.001",
			"perspective":{
				"aspectRatio":1.7777777777777777,
				"yfov":0.513038796505747,
				"zfar":1000,
				"znear":0.10000000149011612
			},
			"type":"perspective"
		}
	],
	"meshes":[
		{
			"name":"Plane",
			"primitives":[
				{
					"attributes":{
						"POSITION":0,
						"NORMAL":1,
						"TEXCOORD_0":2
					},
					"indices":3
				}
			]
		},
		{
			"name":"Cube.001",
			"primitives":[
				{
					"attributes":{
						"POSITION":4,
						"NORMAL":5,
						"TEXCOORD_0":6
					},
					"indices":7
				}
			]
		},
		{
			"name":"Cube.002",
			"primitives":[
				{
					"attributes":{
						"POSITION":8,
						"NORMAL":9,
						"TEXCOORD_0":10
					},
					"indices":7
				}
			]
		},
		{
			"name":"Cube.003",
			"primitives":[
				{
					"attributes":{
						"POSITION":11,
						"NORMAL":12,
						"TEXCOORD_0":13
					},
					"indices":7
				}
			]
		},
		{
			"name":"Cube.004",
			"primitives":[
				{
					"attributes":{
						"POSITION":14,
						"NORMAL":15,
						"TEXCOORD_0":16
					},
					"indices":7
				}
			]
		},
		{
			"name":"Cube.005",
			"primitives":[
				{
					"attributes":{
						"POSITION":17,
						"NORMAL":18,
						"TEXCOORD_0":19
					},
					"indices":20
				}
			]
		},
		{
			"name":"Suzanne",
			"primitives":[
				{
					"attributes":{
						"POSITION":21,
						"NORMAL":22,
						"TEXCOORD_0":23
					},
					"indices":24
				}
			]
		}
	],
	"accessors":[
		{
			"bufferView":0,
			"componentType":5126,
			"count":4,
			"max":[
				1,
				0,
				1
			],
			"min":[
				-1,
				0,
				-1
			],
			"type":"VEC3"
		},
		{
			"bufferView":1,
			"componentType":5126,
			"count":4,
			"type":"VEC3"
		},
		{
			"bufferView":2,
			"componentType":5126,
			"count":4,
			"type":"VEC2"
		},
		{
			"bufferView":3,
			"componentType":5123,
			"count":6,
			"type":"SCALAR"
		},
		{
			"bufferView":4,
			"componentType":5126,
			"count":24,
			"max":[
				1,
				1,
				1
			],
			"min":[
				-1,
				-1,
				-1
			],
			"type":"VEC3"
		},
		{
			"bufferView":5,
			"componentType":5126,
			"count":24,
			"type":"VEC3"
		},
		{
			"bufferView":6,
			"componentType":5126,
			"count":24,
			"type":"VEC2"
		},
		{
			"bufferView":7,
			"componentType":5123,
			"count":36,
			"type":"SCALAR"
		},
		{
			"bufferView":8,
			"componentType":5126,
			"count":24,
			"max":[
				1,
				1,
				1
			],
			"min":[
				-1,
				-1,
				-1
			],
			"type":"VEC3"
		},
		{
			"bufferView":9,
			"componentType":5126,
			"count":24,
			"type":"VEC3"
		},
		{
			"bufferView":10,
			"componentType":5126,
			"count":24,
			"type":"VEC2"
		},
		{
			"bufferView":11,
			"componentType":5126,
			"count":24,
			"max":[
				1,
				1,
				1
			],
			"min":[
				-1,
				-1,
				-1
			],
			"type":"VEC3"
		},
		{
			"bufferView":12,
			"componentType":5126,
			"count":24,
			"type":"VEC3"
		},
		{
			"bufferView":13,
			"componentType":5126,
			"count":24,
			"type":"VEC2"
		},
		{
			"bufferView":14,
			"componentType":5126,
			"count":24,
			"max":[
				1,
				1,
				1
			],
			"min":[
				-1,
				-1,
				-1
			],
			"type":"VEC3"
		},
		{
			"bufferView":15,
			"componentType":5126,
			"count":24,
			"type":"VEC3"
		},
		{
			"bufferView":16,
			"componentType":5126,
			"count":24,
			"type":"VEC2"
		},
		{
			"bufferView":17,
			"componentType":5126,
			"count":48,
			"max":[
				1,
				1,
				1
			],
			"min":[
				-1,
				-1,
				-1
			],
			"type":"VEC3"
		},
		{
			"bufferView":18,
			"componentType":5126,
			"count":48,
			"type":"VEC3"
		},
		{
			"bufferView":19,
			"componentType":5126,
			"count":48,
			"type":"VEC2"
		},
		{
			"bufferView":20,
			"componentType":5123,
			"count":96,
			"type":"SCALAR"
		},
		{
			"bufferView":21,
			"componentType":5126,
			"count":1966,
			"max":[
				1.3671875,
				0.984375,
				0.8515625
			],
			"min":[
				-1.3671875,
				-0.984375,
				-0.8515625
			],
			"type":"VEC3"
		},
		{
			"bufferView":22,
			"componentType":5126,
			"count":1966,
			"type":"VEC3"
		},
		{
			"bufferView":23,
			"componentType":5126,
			"count":1966,
			"type":"VEC2"
		},
		{
			"bufferView":24,
			"componentType":5123,
			"count":2904,
			"type":"SCALAR"
		}
	],
	"bufferViews":[
		{
			"buffer":0,
			"byteLength":48,
			"byteOffset":0,
			"target":34962
		},
		{
			"buffer":0,
			"byteLength":48,
			"byteOffset":48,
			"target":34962
		},
		{
			"buffer":0,
			"byteLength":32,
			"byteOffset":96,
			"target":34962
		},
		{
			"buffer":0,
			"byteLength":12,
			"byteOffset":128,
			"target":34963
		},
		{
			"buffer":0,
			"byteLength":288,
			"byteOffset":140,
			"target":34962
		},
		{
			"buffer":0,
			"byteLength":288,
			"byteOffset":428,
			"target":34962
		},
		{
			"buffer":0,
			"byteLength":192,
			"byteOffset":716,
			"target":34962
		},
		{
			"buffer":0,
			"byteLength":72,
			"byteOffset":908,
			"target":34963
		},
		{
			"buffer":0,
			"byteLength":288,
			"byteOffset":980,
			"target":34962
		},
		{
			"buffer":0,
			"byteLength":288,
			"byteOffset":1268,
			"target":34962
		},
		{
			"buffer":0,
			"byteLength":192,
			"byteOffset":1556,
			"target":34962
		},
		{
			"buffer":0,
			"byteLength":288,
			"byteOffset":1748,
			"target":34962
		},
		{
			"buffer":0,
			"byteLength":288,
			"byteOffset":2036,
			"target":34962
		},
		{
			"buffer":0,
			"byteLength":192,
			"byteOffset":2324,
			"target":34962
		},
		{
			"buffer":0,
			"byteLength":288,
			"byteOffset":2516,
			"target":34962
		},
		{
			"buffer":0,
			"byteLength":288,
			"byteOffset":2804,
			"target":34962
		},
		{
			"buffer":0,
			"byteLength":192,
			"byteOffset":3092,
			"target":34962
		},
		{
			"buffer":0,
			"byteLength":576,
			"byteOffset":3284,
			"target":34962
		},
		{
			"buffer":0,
			"byteLength":576,
			"byteOffset":3860,
			"target":34962
		},
		{
			"buffer":0,
			"byteLength":384,
			"byteOffset":4436,
			"target":34962
		},
		{
			"buffer":0,
			"byteLength":192,
			"byteOffset":4820,
			"target":34963
		},
		{
			"buffer":0,
			"byteLength":23592,
			"byteOffset":5012,
			"target":34962
		},
		{
			"buffer":0,
			"byteLength":23592,
			"byteOffset":28604,
			"target":34962
		},
		{
			"buffer":0,
			"byteLength":15728,
			"byteOffset":52196,
			"target":34962
		},
		{
			"buffer":0,
			"byteLength":5808,
			"byteOffset":67924,
			"target":34963
		}
	],
	"buffers":[
		{
			"byteLength":73732,
			"uri":"SuzanneRoom.bin"
		}
	]
}
