{
	"asset":{
		"generator":"Khronos glTF Blender I/O v4.5.47",
		"version":"2.0"
	},
	"scene":0,
	"scenes":[
		{
			"name":"Scene",
			"nodes":[
				0,
				1,
				2,
				3,
				4
			]
		}
	],
	"nodes":[
		{
			"mesh":0,
			"name":"background",
			"rotation":[
				0.70710688829422,
				0,
				0,
				0.7071066498756409
			]
		},
		{
			"mesh":1,
			"name":"teapot",
			"rotation":[
				0.70710688829422,
				0,
				0,
				0.7071066498756409
			]
		},
		{
			"mesh":2,
			"name":"teapot_base",
			"rotation":[
				0.70710688829422,
				0,
				0,
				0.7071066498756409
			]
		},
		{
			"camera":0,
			"name":"Camera",
			"rotation":[
				-0.0861746072769165,
				0.7018361687660217,
				0.0861746072769165,
				0.7018360495567322
			],
			"translation":[
				0.853930652141571,
				0.27305513620376587,
				0
			]
		},
		{
			"mesh":3,
			"name":"Plane",
			"rotation":[
				-0.5,
				-0.5,
				-0.5,
				0.5
			],
			"scale":[
				0.05000000074505806,
				1,
				0.05000000074505806
			],
			"translation":[
				-0.21060216426849365,
				0.057175807654857635,
				-0.00674128532409668
			]
		}
	],
	"cameras":[
		{
			"name":"Camera.003",
			"perspective":{
				"aspectRatio":1.7777777777777777,
				"yfov":0.1971830576658249,
				"zfar":1000,
				"znear":0.10000000149011612
			},
			"type":"perspective"
		}
	],
	"materials":[
		{
			"doubleSided":true,
			"name":"Material.002",
			"pbrMetallicRoughness":{
				"baseColorTexture":{
					"index":0
				},
				"metallicFactor":0,
				"roughnessFactor":0.5
			}
		},
		{
			"doubleSided":true,
			"name":"Material.001",
			"pbrMetallicRoughness":{
				"metallicFactor":0,
				"roughnessFactor":0
			}
		},
		{
			"doubleSided":true,
			"name":"Material.003",
			"pbrMetallicRoughness":{
				"baseColorFactor":[
					0.09999900311231613,
					0.09599905461072922,
					0.08999919891357422,
					1
				],
				"roughnessFactor":0.5
			}
		}
	],
	"meshes":[
		{
			"name":"background",
			"primitives":[
				{
					"attributes":{
						"POSITION":0,
						"NORMAL":1,
						"TEXCOORD_0":2
					},
					"indices":3,
					"material":0
				}
			]
		},
		{
			"name":"teapot",
			"primitives":[
				{
					"attributes":{
						"POSITION":4,
						"NORMAL":5,
						"TEXCOORD_0":6
					},
					"indices":7,
					"material":1
				}
			]
		},
		{
			"name":"teapot_base",
			"primitives":[
				{
					"attributes":{
						"POSITION":8,
						"NORMAL":9,
						"TEXCOORD_0":10
					},
					"indices":11,
					"material":2
				}
			]
		},
		{
			"name":"Plane",
			"primitives":[
				{
					"attributes":{
						"POSITION":12,
						"NORMAL":13,
						"TEXCOORD_0":14
					},
					"indices":15
				}
			]
		}
	],
	"textures":[
		{
			"sampler":0,
			"source":0
		}
	],
	"images":[
		{
			"mimeType":"image/png",
			"name":"checker",
			"uri":"checker.png"
		}
	],
	"accessors":[
		{
			"bufferView":0,
			"componentType":5126,
			"count":3234,
			"max":[
				0.25,
				0.5,
				0
			],
			"min":[
				-0.44999998807907104,
				-0.5,
				-0.5
			],
			"type":"VEC3"
		},
		{
			"bufferView":1,
			"componentType":5126,
			"count":3234,
			"type":"VEC3"
		},
		{
			"bufferView":2,
			"componentType":5126,
			"count":3234,
			"type":"VEC2"
		},
		{
			"bufferView":3,
			"componentType":5123,
			"count":18432,
			"type":"SCALAR"
		},
		{
			"bufferView":4,
			"componentType":5126,
			"count":143210,
			"max":[
				0.023259999230504036,
				0.06577199697494507,
				-2.2000000171829015e-05
			],
			"min":[
				-0.10484399646520615,
				-0.0675550028681755,
				-0.11692599952220917
			],
			"type":"VEC3"
		},
		{
			"bufferView":5,
			"componentType":5126,
			"count":143210,
			"type":"VEC3"
		},
		{
			"bufferView":6,
			"componentType":5126,
			"count":143210,
			"type":"VEC2"
		},
		{
			"bufferView":7,
			"componentType":5125,
			"count":774144,
			"type":"SCALAR"
		},
		{
			"bufferView":8,
			"componentType":5126,
			"count":2897,
			"max":[
				0.0021470000501722097,
				0.04184500128030777,
				-9.200000204145908e-05
			],
			"min":[
				-0.08434899896383286,
				-0.044746000319719315,
				-0.01607399992644787
			],
			"type":"VEC3"
		},
		{
			"bufferView":9,
			"componentType":5126,
			"count":2897,
			"type":"VEC3"
		},
		{
			"bufferView":10,
			"componentType":5126,
			"count":2897,
			"type":"VEC2"
		},
		{
			"bufferView":11,
			"componentType":5123,
			"count":13680,
			"type":"SCALAR"
		},
		{
			"bufferView":12,
			"componentType":5126,
			"count":4,
			"max":[
				1,
				0,
				1
			],
			"min":[
				-1,
				0,
				-1
			],
			"type":"VEC3"
		},
		{
			"bufferView":13,
			"componentType":5126,
			"count":4,
			"type":"VEC3"
		},
		{
			"bufferView":14,
			"componentType":5126,
			"count":4,
			"type":"VEC2"
		},
		{
			"bufferView":15,
			"componentType":5123,
			"count":6,
			"type":"SCALAR"
		}
	],
	"bufferViews":[
		{
			"buffer":0,
			"byteLength":38808,
			"byteOffset":0,
			"target":34962
		},
		{
			"buffer":0,
			"byteLength":38808,
			"byteOffset":38808,
			"target":34962
		},
		{
			"buffer":0,
			"byteLength":25872,
			"byteOffset":77616,
			"target":34962
		},
		{
			"buffer":0,
			"byteLength":36864,
			"byteOffset":103488,
			"target":34963
		},
		{
			"buffer":0,
			"byteLength":1718520,
			"byteOffset":140352,
			"target":34962
		},
		{
			"buffer":0,
			"byteLength":1718520,
			"byteOffset":1858872,
			"target":34962
		},
		{
			"buffer":0,
			"byteLength":1145680,
			"byteOffset":3577392,
			"target":34962
		},
		{
			"buffer":0,
			"byteLength":3096576,
			"byteOffset":4723072,
			"target":34963
		},
		{
			"buffer":0,
			"byteLength":34764,
			"byteOffset":7819648,
			"target":34962
		},
		{
			"buffer":0,
			"byteLength":34764,
			"byteOffset":7854412,
			"target":34962
		},
		{
			"buffer":0,
			"byteLength":23176,
			"byteOffset":7889176,
			"target":34962
		},
		{
			"buffer":0,
			"byteLength":27360,
			"byteOffset":7912352,
			"target":34963
		},
		{
			"buffer":0,
			"byteLength":48,
			"byteOffset":7939712,
			"target":34962
		},
		{
			"buffer":0,
			"byteLength":48,
			"byteOffset":7939760,
			"target":34962
		},
		{
			"buffer":0,
			"byteLength":32,
			"byteOffset":7939808,
			"target":34962
		},
		{
			"buffer":0,
			"byteLength":12,
			"byteOffset":7939840,
			"target":34963
		}
	],
	"samplers":[
		{
			"magFilter":9729,
			"minFilter":9987
		}
	],
	"buffers":[
		{
			"byteLength":7939852,
			"uri":"TeapotWithLight.bin"
		}
	]
}
